<svg id="state-map" version="1.1" viewBox="0 0 2000 2000" xmlns="http://www.w3.org/2000/svg">
<style>
svg { background: #aaa; font: 1em serif; }
.concrete { fill: #777; }
.influence { fill-opacity: 0.1; stroke-width: 0; }

.state .labs { fill: #000; fill-opacity: 0.5; }
.state .forts { fill: #000; }
.state .other { fill: #990; }
/*.state .other { display: none; }*/

.viv-1 .alliance { fill: #00f; }
.viv-1 .labs { fill: #00f; }

.viv-2 .alliance { fill: #909; }
.viv-2 .labs { fill: #909; }
</style>
<defs>
	<pattern id="capital-grid" width="2%" height="2%">
		<rect x="0" y="0" width="2" height="2" stroke="#000" stroke-width="0.1" class="concrete" />
	</pattern>
	<!-- Level 1 lab - offset from center: 6 -->
	<symbol id="lab1" width="14" height="14">
		<rect x="0" y="0" width="14" height="14" class="concrete" />
		<rect x="6" y="6" width="2" height="2" class="lab" />
	</symbol>
	<!-- Level 2 lab - offset from center: 6 -->
	<symbol id="lab2" width="15" height="15">
		<rect x="0" y="0" width="15" height="15" class="concrete" />
		<rect x="6" y="6" width="3" height="3" class="lab" />
	</symbol>
	<!-- Level 3 lab - offset from center: 6 -->
	<symbol id="lab3" width="16" height="16">
		<rect x="0" y="0" width="16" height="16" class="concrete" />
		<rect x="6" y="6" width="4" height="4" class="lab" />
	</symbol>
	<!-- Level 4 lab - offset from center: 6 -->
	<symbol id="lab4" width="16" height="16">
		<rect x="0" y="0" width="16" height="16" class="concrete" />
		<rect x="6" y="6" width="4" height="4" class="lab" />
	</symbol>

	<!-- Fortified Bunker - offset from center: 18 -->
	<symbol id="bunker" width="40" height="40">
		<rect x="0" y="0" width="40" height="40" class="concrete" />
		<rect x="17" y="17" width="6" height="6" class="fort" />
	</symbol>
	<!-- Fortified Facility - offset from center: 28 -->
	<symbol id="facility" width="60" height="60">
		<rect x="0" y="0" width="60" height="60" class="concrete" />
		<rect x="27" y="27" width="6" height="6" class="fort" />
	</symbol>

	<!-- headquarters - offset from center: 6 -->
	<symbol id="hq" width="14" height="14">
		<rect x="0" y="0" width="14" height="14" class="influence" />
		<rect x="6" y="6" width="2" height="2" />
	</symbol>
	<!-- trap -->
	<symbol id="trap" width="2" height="2">
		<rect x="0" y="0" width="2" height="2" />
	</symbol>
	<!-- tower - offset from center: 3 -->
	<symbol id="tower" width="7" height="7">
		<rect x="0" y="0" width="7" height="7" class="influence" />
		<rect x="3" y="3" width="1" height="1" />
	</symbol>
</defs>


<!-- scale to invert x/y, translate to center, rotate -->
<g transform="scale(-1,1) translate(-1650, 350) rotate(-135, 650, 650)">

	<g class="state">
		<!-- background -->
		<rect x="0" y="0" height="1300" width="1300" fill="#cc9"><title>Wasteland</title></rect>
		<rect x="360" y="360" height="580" width="580" fill="#ada"><title>Plains</title></rect>
		<rect x="520" y="520" height="260" width="260" fill="#8c8"><title>Oasis</title></rect>
		<rect x="600" y="600" height="100" width="100" fill="url(#capital-grid)"><title>Old Town</title></rect>

		<!-- Capital -->
		<g fill="#000">
			<rect x="644" y="644" height="12" width="12" fill-opacity="0.7"><title>Capital</title></rect>
			<rect x="645" y="645" height="1" width="1" />
			<rect x="654" y="645" height="1" width="1" />
			<rect x="645" y="654" height="1" width="1" />
			<rect x="654" y="654" height="1" width="1" />
			<rect x="648" y="648" height="4" width="4" />
		</g>
		<g fill-opacity="0.7">
			<path d="M 644 646 h -6 v -2 h -14 v 14 h 18 v -2 h 2 z" fill="#00f"><title>WLC</title></path>
			<path d="M 644 656 v 2 h -2 v 24 h 8 v -26 z" fill="#660"><title>EnK</title></path>
			<path d="M 656 656 v 2 h 2 v 2 h 2 v 22 h -10 v -26 z" fill="#060"><title>GhL</title></path>
			<path d="M 656 656 h 6 v 2 h 20 v -8 h -26 z" fill="#900"><title>CAP</title></path>
			<path d="M 656 644 h 2 v -2 h 2 v -2 h 22 v 10 h -26 z" fill="#f66"><title>666</title></path>
			<path d="M 656 644 v -6 h 2 v -20 h -8 v 26 z" fill="#099"><title>TW1</title></path>
			<path d="M 644 644 v -2 h -2 v -2 h -2 v -22 h 10 v 26 z" fill="#ff6"><title>UDA</title></path>
		</g>

		<!-- Fortified structures -->
		<g class="forts">
			<use href="#facility" x="460" y="620"><title>Fortified Facility 1 (GhL)</title></use>
			<use href="#facility" x="620" y="460"><title>Fortified Facility 2 (WLC)</title></use>
			<use href="#facility" x="780" y="620"><title>Fortified Facility 3 (UDA)</title></use>
			<use href="#facility" x="620" y="780"><title>Fortified Facility 4 (666)</title></use>
			<use href="#bunker" x="240" y="880"><title>Fortified Bunker 1 (rank 16+)</title></use>
			<use href="#bunker" x="900" y="1020"><title>Fortified Bunker 10 (all)</title></use>
			<use href="#bunker" x="640" y="1020"><title>Fortified Bunker 11 (all)</title></use>
			<use href="#bunker" x="380" y="1020"><title>Fortified Bunker 12 (all)</title></use>
			<use href="#bunker" x="240" y="620"><title>Fortified Bunker 2 (rank 11+)</title></use>
			<use href="#bunker" x="240" y="360"><title>Fortified Bunker 3 (rank 11+)</title></use>
			<use href="#bunker" x="380" y="240"><title>Fortified Bunker 4 (rank 6+)</title></use>
			<use href="#bunker" x="640" y="240"><title>Fortified Bunker 5 (rank 6+)</title></use>
			<use href="#bunker" x="900" y="240"><title>Fortified Bunker 6 (rank 6+)</title></use>
			<use href="#bunker" x="1020" y="360"><title>Fortified Bunker 7 (all)</title></use>
			<use href="#bunker" x="1020" y="620"><title>Fortified Bunker 8 (all)</title></use>
			<use href="#bunker" x="1020" y="880"><title>Fortified Bunker 9 (all)</title></use>
		</g>

		<!-- Labs -->
		<g class="labs">
			<use href="#lab1" x="1142" y="422"><title>(666) Construction Speed +5%</title></use>
			<use href="#lab1" x="1002" y="1162"><title>(888) Construction Speed +5%</title></use>
			<use href="#lab1" x="862" y="142"><title>(cap) Construction Speed +5%</title></use>
			<use href="#lab1" x="122" y="282"><title>(EnK) Construction Speed +5%</title></use>
			<use href="#lab1" x="62" y="62"><title>(Ezx) Construction Speed +5%</title></use>
			<use href="#lab1" x="122" y="602"><title>(HON) Construction Speed +5%</title></use>
			<use href="#lab1" x="282" y="122"><title>(PHI) Construction Speed +5%</title></use>
			<use href="#lab1" x="1162" y="682"><title>(RLw) Construction Speed +5%</title></use>
			<use href="#lab1" x="162" y="1122"><title>(TAY) Construction Speed +5%</title></use>
			<use href="#lab1" x="602" y="122"><title>(Tca) Construction Speed +5%</title></use>
			<use href="#lab1" x="422" y="1142"><title>(TNO) Construction Speed +5%</title></use>
			<use href="#lab1" x="142" y="862"><title>(TW1) Construction Speed +5%</title></use>
			<use href="#lab1" x="682" y="1162"><title>(UDA) Construction Speed +5%</title></use>
			<use href="#lab1" x="1122" y="162"><title>(WLC) Construction Speed +5%</title></use>
			<use href="#lab1" x="1082" y="522"><title>(666) Research Speed +5%</title></use>
			<use href="#lab1" x="762" y="1242"><title>(888) Research Speed +5%</title></use>
			<use href="#lab1" x="982" y="142"><title>(Ca1) Research Speed +5%</title></use>
			<use href="#lab1" x="1242" y="202"><title>(cap) Research Speed +5%</title></use>
			<use href="#lab1" x="802" y="982"><title>(CSI) Research Speed +5%</title></use>
			<use href="#lab1" x="142" y="982"><title>(EnK) Research Speed +5%</title></use>
			<use href="#lab1" x="202" y="642"><title>(GhL) Research Speed +5%</title></use>
			<use href="#lab1" x="202" y="362"><title>(HON) Research Speed +5%</title></use>
			<use href="#lab1" x="202" y="42"><title>(PHI) Research Speed +5%</title></use>
			<use href="#lab1" x="1242" y="762"><title>(RLw) Research Speed +5%</title></use>
			<use href="#lab1" x="642" y="202"><title>(Tca) Research Speed +5%</title></use>
			<use href="#lab1" x="982" y="802"><title>(TDA) Research Speed +5%</title></use>
			<use href="#lab1" x="202" y="1242"><title>(TW1) Research Speed +5%</title></use>
			<use href="#lab1" x="522" y="1082"><title>(UDA) Research Speed +5%</title></use>
			<use href="#lab1" x="362" y="202"><title>(WLC) Research Speed +5%</title></use>
			<use href="#lab1" x="1242" y="482"><title>(666) Resource Gathering Speed +5%</title></use>
			<use href="#lab1" x="842" y="1162"><title>(888) Resource Gathering Speed +5%</title></use>
			<use href="#lab1" x="1082" y="42"><title>(Ca1) Resource Gathering Speed +5%</title></use>
			<use href="#lab1" x="1082" y="1242"><title>(cap) Resource Gathering Speed +5%</title></use>
			<use href="#lab1" x="1242" y="1082"><title>(DRR) Resource Gathering Speed +5%</title></use>
			<use href="#lab1" x="122" y="442"><title>(EnK) Resource Gathering Speed +5%</title></use>
			<use href="#lab1" x="202" y="762"><title>(GhL) Resource Gathering Speed +5%</title></use>
			<use href="#lab1" x="222" y="222"><title>(PHI) Resource Gathering Speed +5%</title></use>
			<use href="#lab1" x="42" y="1082"><title>(REM) Resource Gathering Speed +5%</title></use>
			<use href="#lab1" x="982" y="402"><title>(Spc) Resource Gathering Speed +5%</title></use>
			<use href="#lab1" x="402" y="982"><title>(TAY) Resource Gathering Speed +5%</title></use>
			<use href="#lab1" x="762" y="202"><title>(Tca) Resource Gathering Speed +5%</title></use>
			<use href="#lab1" x="482" y="1242"><title>(UDA) Resource Gathering Speed +5%</title></use>
			<use href="#lab1" x="442" y="122"><title>(WLC) Resource Gathering Speed +5%</title></use>
			<use href="#lab1" x="802" y="42"><title>(Ca1) Resource Production +5%</title></use>
			<use href="#lab1" x="882" y="302"><title>(cap) Resource Production +5%</title></use>
			<use href="#lab1" x="642" y="1082"><title>(CSI) Resource Production +5%</title></use>
			<use href="#lab1" x="42" y="202"><title>(ETV) Resource Production +5%</title></use>
			<use href="#lab1" x="302" y="482"><title>(HON) Resource Production +5%</title></use>
			<use href="#lab1" x="42" y="522"><title>(MOV) Resource Production +5%</title></use>
			<use href="#lab1" x="1142" y="302"><title>(PTR) Resource Production +5%</title></use>
			<use href="#lab1" x="1082" y="642"><title>(RLw) Resource Production +5%</title></use>
			<use href="#lab1" x="1222" y="1222"><title>(Spc) Resource Production +5%</title></use>
			<use href="#lab1" x="302" y="1142"><title>(TAY) Resource Production +5%</title></use>
			<use href="#lab1" x="522" y="42"><title>(Tca) Resource Production +5%</title></use>
			<use href="#lab1" x="42" y="802"><title>(TW1) Resource Production +5%</title></use>
			<use href="#lab1" x="922" y="1082"><title>(UDA) Resource Production +5%</title></use>
			<use href="#lab1" x="302" y="882"><title>(viv) Resource Production +5%</title></use>
			<use href="#lab1" x="482" y="302"><title>(WLC) Resource Production +5%</title></use>
			<use href="#lab2" x="1222" y="602"><title>(666) Training Speed +5%</title></use>
			<use href="#lab2" x="922" y="1242"><title>(Ca1) Training Speed +5%</title></use>
			<use href="#lab2" x="1022" y="262"><title>(cap) Training Speed +5%</title></use>
			<use href="#lab2" x="602" y="982"><title>(CSI) Training Speed +5%</title></use>
			<use href="#lab2" x="42" y="362"><title>(EnK) Training Speed +5%</title></use>
			<use href="#lab2" x="302" y="682"><title>(GhL) Training Speed +5%</title></use>
			<use href="#lab2" x="682" y="302"><title>(HON) Training Speed +5%</title></use>
			<use href="#lab2" x="62" y="1222"><title>(TW1) Training Speed +5%</title></use>
			<use href="#lab2" x="362" y="42"><title>(WLC) Training Speed +5%</title></use>
			<use href="#lab2" x="1242" y="342"><title>(666) Troop Attack +5%</title></use>
			<use href="#lab2" x="942" y="42"><title>(Ca1) Troop Attack +5%</title></use>
			<use href="#lab2" x="1142" y="1142"><title>(cap) Troop Attack +5%</title></use>
			<use href="#lab2" x="762" y="1082"><title>(CSI) Troop Attack +5%</title></use>
			<use href="#lab2" x="42" y="942"><title>(GhL) Troop Attack +5%</title></use>
			<use href="#lab2" x="202" y="522"><title>(HON) Troop Attack +5%</title></use>
			<use href="#lab2" x="142" y="142"><title>(PHI) Troop Attack +5%</title></use>
			<use href="#lab2" x="342" y="1242"><title>(TAY) Troop Attack +5%</title></use>
			<use href="#lab2" x="482" y="202"><title>(WLC) Troop Attack +5%</title></use>
			<use href="#lab2" x="682" y="62"><title>(Ca1) Troop Defense +5%</title></use>
			<use href="#lab2" x="62" y="682"><title>(GhL) Troop Defense +5%</title></use>
			<use href="#lab2" x="262" y="1022"><title>(GhL) Troop Defense +5%</title></use>
			<use href="#lab2" x="302" y="302"><title>(HON) Troop Defense +5%</title></use>
			<use href="#lab2" x="982" y="602"><title>(RLw) Troop Defense +5%</title></use>
			<use href="#lab2" x="602" y="1222"><title>(UDA) Troop Defense +5%</title></use>
			<use href="#lab2" x="1222" y="62"><title>(WLC) Troop Defense +5%</title></use>
			<use href="#lab3" x="822" y="422"><title>(666) Construction Speed +8%</title></use>
			<use href="#lab3" x="422" y="422"><title>(HON) Construction Speed +8%</title></use>
			<use href="#lab3" x="402" y="702"><title>(TW1) Construction Speed +8%</title></use>
			<use href="#lab3" x="882" y="742"><title>(UDA) Construction Speed +8%</title></use>
			<use href="#lab3" x="402" y="562"><title>(HON) March Speed +15%</title></use>
			<use href="#lab3" x="822" y="822"><title>(TAF) March Speed +15%</title></use>
			<use href="#lab3" x="522" y="862"><title>(TW1) March Speed +15%</title></use>
			<use href="#lab3" x="562" y="402"><title>(WLC) March Speed +15%</title></use>
			<use href="#lab3" x="862" y="522"><title>(WWW) March Speed +15%</title></use>
			<use href="#lab3" x="422" y="822"><title>(TAY) Research Speed +8%</title></use>
			<use href="#lab3" x="702" y="402"><title>(Tca) Research Speed +8%</title></use>
			<use href="#lab3" x="862" y="622"><title>(UDA) Research Speed +8%</title></use>
			<use href="#lab3" x="502" y="502"><title>(WLC) Research Speed +8%</title></use>
			<use href="#lab3" x="482" y="742"><title>(TW1) Troop Attack +8%</title></use>
			<use href="#lab4" x="802" y="702"><title>(UDA) Troop Attack +8%</title></use>
			<use href="#lab4" x="582" y="462"><title>(WLC) Troop Attack +8%</title></use>
			<use href="#lab4" x="742" y="482"><title>(cap) Troop Defense +8%</title></use>
			<use href="#lab4" x="462" y="582"><title>(Enk) Troop Defense +8%</title></use>
			<use href="#lab4" x="702" y="802"><title>(GhL) Troop Defense +8%</title></use>
		</g>

		<!-- Other alliances -->
		<g class="other">
			<use href="#hq" x="802" y="692"><title>(393) Plains Headquarters</title></use>
			<use href="#hq" x="679" y="510"><title>(888) Plains Headquarters</title></use>
			<use href="#hq" x="910" y="695"><title>(BLC) Plains Headquarters</title></use>
			<use href="#hq" x="901" y="382"><title>(Ca1) Plains Headquarters</title></use>
			<use href="#hq" x="501" y="407"><title>(Ca5) Plains Headquarters</title></use>
			<use href="#hq" x="713" y="386"><title>(ca9) Plains Headquarters</title></use>
			<use href="#hq" x="724" y="512"><title>(cap) Plains Headquarters</title></use>
			<use href="#hq" x="762" y="778"><title>(CEO) Plains Headquarters</title></use>
			<use href="#hq" x="694" y="783"><title>(CSI) Plains Headquarters</title></use>
			<use href="#hq" x="660" y="863"><title>(DRR) Plains Headquarters</title></use>
			<use href="#hq" x="492" y="588"><title>(Enk) Plains Headquarters</title></use>
			<use href="#hq" x="460" y="358"><title>(EpM) Plains Headquarters</title></use>
			<use href="#hq" x="465" y="804"><title>(ezx) Plains Headquarters</title></use>
			<use href="#hq" x="515" y="788"><title>(Ezx) Plains Headquarters</title></use>
			<use href="#hq" x="616" y="918"><title>(FTx) Plains Headquarters</title></use>
			<use href="#hq" x="558" y="458"><title>(GAN) Plains Headquarters</title></use>
			<use href="#hq" x="608" y="774"><title>(GhL) Plains Headquarters</title></use>
			<use href="#hq" x="874" y="381"><title>(HDC) Plains Headquarters</title></use>
			<use href="#hq" x="475" y="606"><title>(Hon) Plains Headquarters</title></use>
			<use href="#hq" x="512" y="567"><title>(HON) Plains Headquarters</title></use>
			<use href="#hq" x="393" y="631"><title>(Ita) Plains Headquarters</title></use>
			<use href="#hq" x="607" y="444"><title>(NI6) Plains Headquarters</title></use>
			<use href="#hq" x="447" y="483"><title>(PHI) Plains Headquarters</title></use>
			<use href="#hq" x="792" y="367"><title>(PTR) Plains Headquarters</title></use>
			<use href="#hq" x="648" y="930"><title>(REM) Plains Headquarters</title></use>
			<use href="#hq" x="930" y="645"><title>(RLw) Plains Headquarters</title></use>
			<use href="#hq" x="557" y="932"><title>(RUS) Plains Headquarters</title></use>
			<use href="#hq" x="712" y="784"><title>(sky) Plains Headquarters</title></use>
			<use href="#hq" x="928" y="468"><title>(Spc) Plains Headquarters</title></use>
			<use href="#hq" x="815" y="745"><title>(TAF) Plains Headquarters</title></use>
			<use href="#hq" x="564" y="805"><title>(TAY) Plains Headquarters</title></use>
			<use href="#hq" x="713" y="386"><title>(Tca) Plains Headquarters</title></use>
			<use href="#hq" x="782" y="736"><title>(TDA) Plains Headquarters</title></use>
			<use href="#hq" x="775" y="465"><title>(TNO) Plains Headquarters</title></use>
			<use href="#hq" x="738" y="783"><title>(TNT) Plains Headquarters</title></use>
			<use href="#hq" x="384" y="482"><title>(TRI) Plains Headquarters</title></use>
			<use href="#hq" x="539" y="912"><title>(Trq) Plains Headquarters</title></use>
			<use href="#hq" x="503" y="705"><title>(TW1) Plains Headquarters</title></use>
			<use href="#hq" x="358" y="539"><title>(Twa) Plains Headquarters</title></use>
			<use href="#hq" x="766" y="697"><title>(UDA) Plains Headquarters</title></use>
			<use href="#hq" x="860" y="931"><title>(viv) Plains Headquarters</title></use>
			<use href="#hq" x="484" y="498"><title>(wlc) Plains Headquarters</title></use>
			<use href="#hq" x="568" y="512"><title>(WLC) Plains Headquarters</title></use>
			<use href="#hq" x="796" y="585"><title>(WLF) Plains Headquarters</title></use>
			<use href="#hq" x="459" y="884"><title>(Xxb) Plains Headquarters</title></use>
			<use href="#hq" x="909" y="805"><title>(XXX) Plains Headquarters</title></use>
			<use href="#hq" x="702" y="934"><title>(888) Wasteland Headquarters</title></use>
			<use href="#hq" x="812" y="936"><title>(8V8) Wasteland Headquarters</title></use>
			<use href="#hq" x="347" y="461"><title>(ADN) Wasteland Headquarters</title></use>
			<use href="#hq" x="912" y="937"><title>(AHS) Wasteland Headquarters</title></use>
			<use href="#hq" x="190" y="632"><title>(Dzf) Wasteland Headquarters</title></use>
			<use href="#hq" x="1033" y="925"><title>(ewK) Wasteland Headquarters</title></use>
			<use href="#hq" x="351" y="359"><title>(FTx) Wasteland Headquarters</title></use>
			<use href="#hq" x="745" y="352"><title>(Q29) Wasteland Headquarters</title></use>
			<use href="#hq" x="292" y="906"><title>(viv) Wasteland Headquarters</title></use>
			<use href="#trap" x="727" y="576"><title>(666) Influencer Trap</title></use>
			<use href="#trap" x="664" y="571"><title>(888) Influencer Trap</title></use>
			<use href="#trap" x="910" y="695"><title>(BLC) Influencer Trap</title></use>
			<use href="#trap" x="914" y="389"><title>(Ca1) Influencer Trap</title></use>
			<use href="#trap" x="505" y="406"><title>(Ca5) Influencer Trap</title></use>
			<use href="#trap" x="711" y="393"><title>(ca9) Influencer Trap</title></use>
			<use href="#trap" x="732" y="523"><title>(cap) Influencer Trap</title></use>
			<use href="#trap" x="770" y="782"><title>(CEO) Influencer Trap</title></use>
			<use href="#trap" x="677" y="714"><title>(CSI) Influencer Trap</title></use>
			<use href="#trap" x="668" y="863"><title>(DRR) Influencer Trap</title></use>
			<use href="#trap" x="198" y="643"><title>(Dzf) Influencer Trap</title></use>
			<use href="#trap" x="490" y="591"><title>(EnK) Influencer Trap</title></use>
			<use href="#trap" x="464" y="368"><title>(EpM) Influencer Trap</title></use>
			<use href="#trap" x="477" y="809"><title>(ezx) Influencer Trap</title></use>
			<use href="#trap" x="548" y="742"><title>(Ezx) Influencer Trap</title></use>
			<use href="#trap" x="625" y="924"><title>(FTx) Influencer Trap</title></use>
			<use href="#trap" x="564" y="460"><title>(GAN) Influencer Trap</title></use>
			<use href="#trap" x="620" y="754"><title>(GhL) Influencer Trap</title></use>
			<use href="#trap" x="886" y="390"><title>(HDC) Influencer Trap</title></use>
			<use href="#trap" x="554" y="656"><title>(Hon) Influencer Trap</title></use>
			<use href="#trap" x="563" y="575"><title>(HON) Influencer Trap</title></use>
			<use href="#trap" x="401" y="641"><title>(Ita) Influencer Trap</title></use>
			<use href="#trap" x="462" y="496"><title>(PHI) Influencer Trap</title></use>
			<use href="#trap" x="792" y="369"><title>(PTR) Influencer Trap</title></use>
			<use href="#trap" x="656" y="945"><title>(REM) Influencer Trap</title></use>
			<use href="#trap" x="934" y="645"><title>(RLw) Influencer Trap</title></use>
			<use href="#trap" x="439" y="656"><title>(Spa) Influencer Trap</title></use>
			<use href="#trap" x="928" y="474"><title>(Spc) Influencer Trap</title></use>
			<use href="#trap" x="822" y="728"><title>(TAF) Influencer Trap</title></use>
			<use href="#trap" x="577" y="806"><title>(TAY) Influencer Trap</title></use>
			<use href="#trap" x="711" y="393"><title>(Tca) Influencer Trap</title></use>
			<use href="#trap" x="793" y="754"><title>(TDA) Influencer Trap</title></use>
			<use href="#trap" x="778" y="460"><title>(TNO) Influencer Trap</title></use>
			<use href="#trap" x="741" y="808"><title>(TNT) Influencer Trap</title></use>
			<use href="#trap" x="547" y="914"><title>(Trq) Influencer Trap</title></use>
			<use href="#trap" x="516" y="728"><title>(TW1) Influencer Trap</title></use>
			<use href="#trap" x="760" y="700"><title>(UDA) Influencer Trap</title></use>
			<use href="#trap" x="868" y="946"><title>(viv) Influencer Trap</title></use>
			<use href="#trap" x="486" y="498"><title>(wlc) Influencer Trap</title></use>
			<use href="#trap" x="565" y="539"><title>(WLC) Influencer Trap</title></use>
			<use href="#trap" x="803" y="589"><title>(WLF) Influencer Trap</title></use>
			<use href="#trap" x="761" y="627"><title>(WWW) Influencer Trap</title></use>
			<use href="#trap" x="480" y="865"><title>(Xxb) Influencer Trap</title></use>
			<use href="#trap" x="921" y="819"><title>(XXX) Influencer Trap</title></use>
		</g>
	</g>

	<!-- ViV -->
	<g class="viv-1">

	<g class="alliance">
		<!-- towers -->
		<use href="#tower" x="573" y="929" />
		<use href="#tower" x="574" y="922" />
		<use href="#tower" x="580" y="915" />
		<use href="#tower" x="584" y="908" />
		<use href="#tower" x="586" y="901" />
		<use href="#tower" x="591" y="894" />
		<use href="#tower" x="592" y="887" />
		<use href="#tower" x="599" y="880" />
		<use href="#tower" x="606" y="879" />
		<use href="#tower" x="613" y="875" />
		<use href="#tower" x="618" y="875" />
		<use href="#tower" x="696" y="699" />
		<use href="#tower" x="699" y="694" />
		<use href="#tower" x="705" y="694" />
		<use href="#tower" x="706" y="708" />
		<use href="#tower" x="707" y="715" />
		<use href="#tower" x="707" y="818" />
		<use href="#tower" x="707" y="866" />
		<use href="#tower" x="707" y="874" />
		<use href="#tower" x="710" y="701" />
		<use href="#tower" x="710" y="722" />
		<use href="#tower" x="712" y="831" />
		<use href="#tower" x="713" y="708" />
		<use href="#tower" x="713" y="743" />
		<use href="#tower" x="713" y="750" />
		<use href="#tower" x="713" y="845" />
		<use href="#tower" x="713" y="865" />
		<use href="#tower" x="714" y="724" />
		<use href="#tower" x="714" y="732" />
		<use href="#tower" x="714" y="736" />
		<use href="#tower" x="714" y="818" />
		<use href="#tower" x="714" y="825" />
		<use href="#tower" x="714" y="873" />
		<use href="#tower" x="715" y="838" />
		<use href="#tower" x="716" y="757" />
		<use href="#tower" x="716" y="852" />
		<use href="#tower" x="717" y="831" />
		<use href="#tower" x="718" y="771" />
		<use href="#tower" x="718" y="845" />
		<use href="#tower" x="718" y="859" />
		<use href="#tower" x="719" y="728" />
		<use href="#tower" x="719" y="866" />
		<use href="#tower" x="720" y="764" />
		<use href="#tower" x="721" y="803" />
		<use href="#tower" x="722" y="778" />
		<use href="#tower" x="722" y="785" />
		<use href="#tower" x="722" y="824" />
		<use href="#tower" x="722" y="838" />
		<use href="#tower" x="723" y="792" />
		<use href="#tower" x="723" y="831" />
		<use href="#tower" x="723" y="852" />
		<use href="#tower" x="725" y="731" />
		<use href="#tower" x="725" y="838" />
		<use href="#tower" x="725" y="845" />
		<use href="#tower" x="726" y="859" />
		<use href="#tower" x="726" y="866" />
		<use href="#tower" x="728" y="803" />
		<use href="#tower" x="729" y="834" />
		<use href="#tower" x="730" y="796" />
		<use href="#tower" x="730" y="827" />
		<use href="#tower" x="730" y="852" />
		<use href="#tower" x="732" y="737" />
		<use href="#tower" x="732" y="842" />
		<use href="#tower" x="732" y="884" />
		<use href="#tower" x="733" y="847" />
		<use href="#tower" x="733" y="870" />
		<use href="#tower" x="734" y="744" />
		<use href="#tower" x="734" y="860" />
		<use href="#tower" x="734" y="868" />
		<use href="#tower" x="735" y="819" />
		<use href="#tower" x="736" y="751" />
		<use href="#tower" x="736" y="877" />
		<use href="#tower" x="737" y="835" />
		<use href="#tower" x="737" y="854" />
		<use href="#tower" x="739" y="842" />
		<use href="#tower" x="740" y="868" />
		<use href="#tower" x="741" y="850" />
		<use href="#tower" x="742" y="757" />
		<use href="#tower" x="742" y="764" />
		<use href="#tower" x="742" y="819" />
		<use href="#tower" x="742" y="841" />
		<use href="#tower" x="742" y="862" />
		<use href="#tower" x="743" y="813" />
		<use href="#tower" x="744" y="857" />
		<use href="#tower" x="745" y="835" />
		<use href="#tower" x="746" y="905" />
		<use href="#tower" x="746" y="909" />
		<use href="#tower" x="748" y="843" />
		<use href="#tower" x="748" y="865" />
		<use href="#tower" x="749" y="817" />
		<use href="#tower" x="749" y="824" />
		<use href="#tower" x="749" y="850" />
		<use href="#tower" x="751" y="843" />
		<use href="#tower" x="751" y="858" />
		<use href="#tower" x="752" y="805" />
		<use href="#tower" x="752" y="811" />
		<use href="#tower" x="752" y="836" />
		<use href="#tower" x="753" y="898" />
		<use href="#tower" x="754" y="871" />
		<use href="#tower" x="755" y="832" />
		<use href="#tower" x="755" y="848" />
		<use href="#tower" x="755" y="854" />
		<use href="#tower" x="756" y="818" />
		<use href="#tower" x="756" y="825" />
		<use href="#tower" x="756" y="878" />
		<use href="#tower" x="758" y="842" />
		<use href="#tower" x="760" y="852" />
		<use href="#tower" x="760" y="891" />
		<use href="#tower" x="762" y="829" />
		<use href="#tower" x="762" y="836" />
		<use href="#tower" x="763" y="884" />
		<use href="#tower" x="765" y="898" />
		<use href="#tower" x="769" y="836" />
		<use href="#tower" x="770" y="870" />
		<use href="#tower" x="770" y="877" />
		<use href="#tower" x="777" y="884" />
		<use href="#tower" x="779" y="891" />
		<use href="#tower" x="786" y="891" />
		<use href="#tower" x="788" y="898" />
		<use href="#tower" x="790" y="905" />
		<use href="#tower" x="792" y="885" />
		<use href="#tower" x="796" y="912" />
		<use href="#tower" x="803" y="917" />
		<use href="#tower" x="810" y="914" />
		<use href="#tower" x="817" y="920" />
		<use href="#tower" x="824" y="919" />
		<use href="#tower" x="831" y="924" />
		<use href="#tower" x="838" y="922" />
		<use href="#tower" x="845" y="920" />
		<use href="#tower" x="851" y="916" />
		<use href="#tower" x="858" y="911" />
		<use href="#tower" x="862" y="909" />
		<use href="#tower" x="867" y="916" />
		<use href="#tower" x="874" y="913" />
		<use href="#tower" x="878" y="911" />
		<use href="#tower" x="885" y="909" />
		<use href="#tower" x="887" y="923" />
		<use href="#tower" x="890" y="896" />
		<use href="#tower" x="890" y="916" />
		<use href="#tower" x="891" y="930" />
		<use href="#tower" x="892" y="907" />
		<use href="#tower" x="897" y="903" />
		<use href="#tower" x="897" y="930" />
		<use href="#tower" x="902" y="924" />
		<use href="#tower" x="906" y="927" />
		<use href="#tower" x="906" y="930" />
		<use href="#tower" x="911" y="931" />
		<use href="#tower" x="918" y="931" />
		<use href="#tower" x="924" y="938" />
		<use href="#tower" x="929" y="931" />
		<use href="#tower" x="931" y="939" />
		<use href="#tower" x="937" y="933" />
		<use href="#tower" x="938" y="946" />
		<use href="#tower" x="945" y="952" />
		<use href="#tower" x="945" y="959" />
		<use href="#tower" x="952" y="959" />
		<use href="#tower" x="959" y="957" />
		<use href="#tower" x="966" y="953" />
		<use href="#tower" x="973" y="949" />
		<use href="#tower" x="980" y="948" />
		<use href="#tower" x="986" y="955" />
		<use href="#tower" x="986" y="962" />
		<use href="#tower" x="986" y="969" />
		<use href="#tower" x="986" y="976" />
		<use href="#tower" x="987" y="948" />
		<use href="#tower" x="994" y="948" />
		<use href="#tower" x="1001" y="947" />
		<use href="#tower" x="1003" y="1041" />
		<use href="#tower" x="1003" y="1048" />
		<use href="#tower" x="1004" y="1055" />
		<use href="#tower" x="1007" y="942" />
		<use href="#tower" x="1007" y="1034" />
		<use href="#tower" x="1008" y="946" />
		<use href="#tower" x="1008" y="1020" />
		<use href="#tower" x="1008" y="1027" />
		<use href="#tower" x="1011" y="1057" />
		<use href="#tower" x="1013" y="1013" />
		<use href="#tower" x="1015" y="951" />
		<use href="#tower" x="1017" y="1006" />
		<use href="#tower" x="1017" y="1058" />
		<use href="#tower" x="1021" y="957" />
		<use href="#tower" x="1021" y="999" />
		<use href="#tower" x="1022" y="934" />
		<use href="#tower" x="1022" y="948" />
		<use href="#tower" x="1022" y="993" />
		<use href="#tower" x="1023" y="927" />
		<use href="#tower" x="1024" y="1055" />
		<use href="#tower" x="1025" y="963" />
		<use href="#tower" x="1028" y="992" />
		<use href="#tower" x="1029" y="941" />
		<use href="#tower" x="1029" y="970" />
		<use href="#tower" x="1030" y="921" />
		<use href="#tower" x="1031" y="1055" />
		<use href="#tower" x="1033" y="997" />
		<use href="#tower" x="1035" y="985" />
		<use href="#tower" x="1036" y="936" />
		<use href="#tower" x="1036" y="971" />
		<use href="#tower" x="1036" y="978" />
		<use href="#tower" x="1038" y="1055" />
		<use href="#tower" x="1041" y="956" />
		<use href="#tower" x="1043" y="934" />
		<use href="#tower" x="1043" y="971" />
		<use href="#tower" x="1045" y="1057" />
		<use href="#tower" x="1046" y="949" />
		<use href="#tower" x="1048" y="963" />
		<use href="#tower" x="1049" y="942" />
		<use href="#tower" x="1050" y="935" />
		<use href="#tower" x="1052" y="920" />
		<use href="#tower" x="1052" y="1058" />
		<use href="#tower" x="1054" y="969" />
		<use href="#tower" x="1056" y="1063" />
		<use href="#tower" x="1057" y="921" />
		<use href="#tower" x="1057" y="928" />
		<use href="#tower" x="1060" y="894" />
		<use href="#tower" x="1061" y="969" />
		<use href="#tower" x="1064" y="930" />
		<use href="#tower" x="1065" y="895" />
		<use href="#tower" x="1067" y="937" />
		<use href="#tower" x="1068" y="902" />
		<use href="#tower" x="1068" y="909" />
		<use href="#tower" x="1068" y="973" />
		<use href="#tower" x="1070" y="928" />
		<use href="#tower" x="1075" y="916" />
		<use href="#tower" x="1075" y="923" />
		<use href="#tower" x="1075" y="930" />
		<use href="#tower" x="1075" y="970" />
		<use href="#tower" x="1081" y="887" />
		<use href="#tower" x="1081" y="937" />
		<use href="#tower" x="1082" y="911" />
		<use href="#tower" x="1082" y="944" />
		<use href="#tower" x="1082" y="951" />
		<use href="#tower" x="1088" y="836" />
		<use href="#tower" x="1088" y="894" />
		<use href="#tower" x="1089" y="873" />
		<use href="#tower" x="1089" y="908" />
		<use href="#tower" x="1090" y="822" />
		<use href="#tower" x="1091" y="836" />
		<use href="#tower" x="1092" y="829" />
		<use href="#tower" x="1094" y="915" />
		<use href="#tower" x="1095" y="887" />
		<use href="#tower" x="1096" y="880" />
		<use href="#tower" x="1096" y="908" />
		<use href="#tower" x="1096" y="935" />
		<use href="#tower" x="1097" y="773" />
		<use href="#tower" x="1097" y="922" />
		<use href="#tower" x="1098" y="780" />
		<use href="#tower" x="1098" y="836" />
		<use href="#tower" x="1098" y="859" />
		<use href="#tower" x="1098" y="873" />
		<use href="#tower" x="1099" y="787" />
		<use href="#tower" x="1101" y="894" />
		<use href="#tower" x="1103" y="901" />
		<use href="#tower" x="1103" y="929" />
		<use href="#tower" x="1104" y="922" />
		<use href="#tower" x="1105" y="822" />
		<use href="#tower" x="1105" y="836" />
		<use href="#tower" x="1105" y="859" />
		<use href="#tower" x="1105" y="866" />
		<use href="#tower" x="1106" y="794" />
		<use href="#tower" x="1106" y="801" />
		<use href="#tower" x="1106" y="808" />
		<use href="#tower" x="1106" y="815" />
		<use href="#tower" x="1108" y="829" />
		<use href="#tower" x="1109" y="936" />
		<use href="#tower" x="1110" y="894" />
		<use href="#tower" x="1112" y="840" />
		<use href="#tower" x="1112" y="852" />
		<use href="#tower" x="1113" y="798" />
		<use href="#tower" x="1117" y="901" />
		<use href="#tower" x="1117" y="910" />
		<use href="#tower" x="1119" y="842" />
		<use href="#tower" x="1119" y="849" />
		<use href="#tower" x="1119" y="856" />
		<use href="#tower" x="1119" y="863" />
		<use href="#tower" x="1123" y="870" />
		<use href="#tower" x="1124" y="895" />
		<use href="#tower" x="1124" y="905" />
		<use href="#tower" x="1126" y="842" />
		<use href="#tower" x="1126" y="876" />
		<use href="#tower" x="1127" y="919" />
		<use href="#tower" x="1127" y="926" />
		<use href="#tower" x="1129" y="849" />
		<use href="#tower" x="1130" y="912" />
		<use href="#tower" x="1131" y="894" />
		<use href="#tower" x="1133" y="838" />
		<use href="#tower" x="1133" y="911" />
		<use href="#tower" x="1140" y="843" />
		<use href="#tower" x="1140" y="911" />
		<use href="#tower" x="1147" y="841" />
		<use href="#tower" x="1147" y="851" />
		<use href="#tower" x="1147" y="918" />
		<use href="#tower" x="1151" y="883" />
		<use href="#tower" x="1153" y="890" />
		<use href="#tower" x="1154" y="848" />
		<use href="#tower" x="1154" y="922" />
		<use href="#tower" x="1155" y="855" />
		<use href="#tower" x="1157" y="962" />
		<use href="#tower" x="1157" y="969" />
		<use href="#tower" x="1158" y="847" />
		<use href="#tower" x="1158" y="869" />
		<use href="#tower" x="1159" y="955" />
		<use href="#tower" x="1160" y="862" />
		<use href="#tower" x="1160" y="883" />
		<use href="#tower" x="1160" y="941" />
		<use href="#tower" x="1160" y="948" />
		<use href="#tower" x="1160" y="976" />
		<use href="#tower" x="1161" y="921" />
		<use href="#tower" x="1161" y="983" />
		<use href="#tower" x="1162" y="990" />
		<use href="#tower" x="1163" y="876" />
		<use href="#tower" x="1165" y="890" />
		<use href="#tower" x="1167" y="934" />
		<use href="#tower" x="1167" y="996" />
		<use href="#tower" x="1168" y="914" />
		<use href="#tower" x="1168" y="927" />
		<use href="#tower" x="1175" y="914" />
		<use href="#tower" x="1182" y="915" />
		<use href="#tower" x="1189" y="914" />
		<use href="#tower" x="1193" y="952" />
		<use href="#tower" x="1195" y="928" />
		<use href="#tower" x="1196" y="921" />
		<use href="#tower" x="1200" y="949" />
		<use href="#tower" x="1201" y="914" />
		<use href="#tower" x="1202" y="963" />
		<use href="#tower" x="1203" y="928" />
		<use href="#tower" x="1203" y="942" />
		<use href="#tower" x="1203" y="956" />
		<use href="#tower" x="1209" y="923" />
		<use href="#tower" x="1210" y="935" />
		<use href="#tower" x="1217" y="935" />
		<use href="#tower" x="1224" y="931" />
		<use href="#tower" x="1228" y="928" />
		<use href="#tower" x="1235" y="934" />

		<!-- alliance buildings -->
		<use href="#hq" x="721" y="810"><title>(ViV) Plains Headquarters</title></use>
		<use href="#hq" x="569" y="936"><title>(ViV) Wasteland Headquarters</title></use>
		<use href="#trap" x="745" y="847"><title>(ViV) Influencer Trap</title></use>
	</g>

	<!-- labs -->
	<g class="labs">
		<use href="#lab1" x="1162" y="1002"><title>(ViV) Construction Speed +5%</title></use>
		<use href="#lab1" x="1062" y="1062"><title>(ViV) Research Speed +5%</title></use>
		<use href="#lab1" x="1162" y="842"><title>(ViV) Resource Gathering Speed +5%</title></use>
		<use href="#lab1" x="1082" y="922"><title>(ViV) Resource Production +5%</title></use>
		<use href="#lab2" x="1242" y="922"><title>(ViV) Training Speed +5%</title></use>
		<use href="#lab2" x="1082" y="762"><title>(ViV) Troop Attack +5%</title></use>
		<use href="#lab2" x="982" y="982"><title>(ViV) Troop Defense +5%</title></use>
		<use href="#lab3" x="622" y="862"><title>(ViV) Construction Speed +8%</title></use>
		<use href="#lab3" x="742" y="882"><title>(ViV) Research Speed +8%</title></use>
	</g>

	</g>


	<!-- viv -->
	<g class="viv-2">

	<g class="alliance">
		<!-- towers -->
		<use href="#tower" x="165" y="728" />
		<use href="#tower" x="165" y="739" />
		<use href="#tower" x="172" y="733" />
		<use href="#tower" x="179" y="733" />
		<use href="#tower" x="186" y="733" />
		<use href="#tower" x="193" y="734" />
		<use href="#tower" x="198" y="739" />
		<use href="#tower" x="205" y="734" />
		<use href="#tower" x="211" y="732" />
		<use href="#tower" x="212" y="666" />
		<use href="#tower" x="213" y="654" />
		<use href="#tower" x="218" y="731" />
		<use href="#tower" x="219" y="666" />
		<use href="#tower" x="220" y="656" />
		<use href="#tower" x="223" y="635" />
		<use href="#tower" x="223" y="649" />
		<use href="#tower" x="225" y="728" />
		<use href="#tower" x="226" y="662" />
		<use href="#tower" x="227" y="642" />
		<use href="#tower" x="229" y="735" />
		<use href="#tower" x="232" y="722" />
		<use href="#tower" x="233" y="635" />
		<use href="#tower" x="233" y="669" />
		<use href="#tower" x="239" y="721" />
		<use href="#tower" x="240" y="665" />
		<use href="#tower" x="240" y="768" />
		<use href="#tower" x="240" y="775" />
		<use href="#tower" x="241" y="728" />
		<use href="#tower" x="245" y="714" />
		<use href="#tower" x="245" y="735" />
		<use href="#tower" x="246" y="754" />
		<use href="#tower" x="246" y="761" />
		<use href="#tower" x="246" y="793" />
		<use href="#tower" x="247" y="667" />
		<use href="#tower" x="247" y="775" />
		<use href="#tower" x="249" y="674" />
		<use href="#tower" x="249" y="682" />
		<use href="#tower" x="250" y="864" />
		<use href="#tower" x="251" y="660" />
		<use href="#tower" x="251" y="742" />
		<use href="#tower" x="252" y="712" />
		<use href="#tower" x="253" y="754" />
		<use href="#tower" x="253" y="789" />
		<use href="#tower" x="254" y="668" />
		<use href="#tower" x="254" y="675" />
		<use href="#tower" x="254" y="782" />
		<use href="#tower" x="254" y="805" />
		<use href="#tower" x="254" y="809" />
		<use href="#tower" x="256" y="747" />
		<use href="#tower" x="257" y="862" />
		<use href="#tower" x="258" y="816" />
		<use href="#tower" x="259" y="712" />
		<use href="#tower" x="259" y="800" />
		<use href="#tower" x="260" y="793" />
		<use href="#tower" x="260" y="823" />
		<use href="#tower" x="261" y="678" />
		<use href="#tower" x="262" y="753" />
		<use href="#tower" x="263" y="860" />
		<use href="#tower" x="265" y="954" />
		<use href="#tower" x="266" y="712" />
		<use href="#tower" x="266" y="802" />
		<use href="#tower" x="268" y="675" />
		<use href="#tower" x="268" y="732" />
		<use href="#tower" x="268" y="739" />
		<use href="#tower" x="268" y="853" />
		<use href="#tower" x="268" y="927" />
		<use href="#tower" x="269" y="746" />
		<use href="#tower" x="270" y="806" />
		<use href="#tower" x="270" y="846" />
		<use href="#tower" x="271" y="812" />
		<use href="#tower" x="272" y="945" />
		<use href="#tower" x="272" y="952" />
		<use href="#tower" x="273" y="709" />
		<use href="#tower" x="274" y="668" />
		<use href="#tower" x="275" y="681" />
		<use href="#tower" x="275" y="920" />
		<use href="#tower" x="275" y="965" />
		<use href="#tower" x="276" y="705" />
		<use href="#tower" x="276" y="813" />
		<use href="#tower" x="276" y="827" />
		<use href="#tower" x="276" y="931" />
		<use href="#tower" x="276" y="959" />
		<use href="#tower" x="277" y="853" />
		<use href="#tower" x="278" y="688" />
		<use href="#tower" x="279" y="695" />
		<use href="#tower" x="279" y="905" />
		<use href="#tower" x="279" y="944" />
		<use href="#tower" x="279" y="952" />
		<use href="#tower" x="280" y="885" />
		<use href="#tower" x="280" y="920" />
		<use href="#tower" x="281" y="846" />
		<use href="#tower" x="281" y="912" />
		<use href="#tower" x="282" y="938" />
		<use href="#tower" x="283" y="702" />
		<use href="#tower" x="283" y="820" />
		<use href="#tower" x="283" y="924" />
		<use href="#tower" x="283" y="931" />
		<use href="#tower" x="283" y="960" />
		<use href="#tower" x="284" y="860" />
		<use href="#tower" x="284" y="866" />
		<use href="#tower" x="284" y="871" />
		<use href="#tower" x="284" y="919" />
		<use href="#tower" x="285" y="900" />
		<use href="#tower" x="286" y="890" />
		<use href="#tower" x="286" y="907" />
		<use href="#tower" x="286" y="944" />
		<use href="#tower" x="288" y="827" />
		<use href="#tower" x="288" y="841" />
		<use href="#tower" x="288" y="914" />
		<use href="#tower" x="290" y="920" />
		<use href="#tower" x="290" y="927" />
		<use href="#tower" x="290" y="960" />
		<use href="#tower" x="291" y="871" />
		<use href="#tower" x="291" y="878" />
		<use href="#tower" x="291" y="892" />
		<use href="#tower" x="291" y="899" />
		<use href="#tower" x="292" y="885" />
		<use href="#tower" x="294" y="920" />
		<use href="#tower" x="294" y="933" />
		<use href="#tower" x="295" y="834" />
		<use href="#tower" x="296" y="940" />
		<use href="#tower" x="297" y="919" />
		<use href="#tower" x="297" y="958" />
		<use href="#tower" x="298" y="871" />
		<use href="#tower" x="298" y="878" />
		<use href="#tower" x="298" y="885" />
		<use href="#tower" x="298" y="892" />
		<use href="#tower" x="298" y="899" />
		<use href="#tower" x="301" y="869" />
		<use href="#tower" x="302" y="828" />
		<use href="#tower" x="302" y="919" />
		<use href="#tower" x="302" y="940" />
		<use href="#tower" x="304" y="956" />
		<use href="#tower" x="305" y="900" />
		<use href="#tower" x="306" y="905" />
		<use href="#tower" x="306" y="911" />
		<use href="#tower" x="307" y="869" />
		<use href="#tower" x="308" y="815" />
		<use href="#tower" x="308" y="822" />
		<use href="#tower" x="308" y="918" />
		<use href="#tower" x="309" y="940" />
		<use href="#tower" x="310" y="953" />
		<use href="#tower" x="312" y="899" />
		<use href="#tower" x="312" y="904" />
		<use href="#tower" x="312" y="918" />
		<use href="#tower" x="313" y="913" />
		<use href="#tower" x="314" y="808" />
		<use href="#tower" x="319" y="919" />
		<use href="#tower" x="321" y="808" />
		<use href="#tower" x="325" y="923" />
		<use href="#tower" x="326" y="811" />
		<use href="#tower" x="330" y="813" />
		<use href="#tower" x="332" y="921" />
		<use href="#tower" x="336" y="806" />
		<use href="#tower" x="339" y="915" />
		<use href="#tower" x="343" y="804" />
		<use href="#tower" x="344" y="907" />
		<use href="#tower" x="346" y="913" />
		<use href="#tower" x="348" y="816" />
		<use href="#tower" x="349" y="901" />
		<use href="#tower" x="350" y="809" />
		<use href="#tower" x="351" y="906" />
		<use href="#tower" x="353" y="920" />
		<use href="#tower" x="354" y="887" />
		<use href="#tower" x="355" y="816" />
		<use href="#tower" x="355" y="894" />
		<use href="#tower" x="360" y="913" />
		<use href="#tower" x="362" y="818" />
		<use href="#tower" x="365" y="913" />
		<use href="#tower" x="368" y="825" />
		<use href="#tower" x="372" y="908" />
		<use href="#tower" x="373" y="835" />
		<use href="#tower" x="375" y="830" />
		<use href="#tower" x="377" y="842" />
		<use href="#tower" x="377" y="849" />
		<use href="#tower" x="382" y="827" />
		<use href="#tower" x="389" y="820" />
		<use href="#tower" x="396" y="815" />
		<use href="#tower" x="403" y="808" />
		<use href="#tower" x="406" y="815" />
		<use href="#tower" x="817" y="914" />
		<use href="#tower" x="823" y="913" />
		<use href="#tower" x="830" y="917" />
		<use href="#tower" x="834" y="914" />
		<use href="#tower" x="841" y="912" />
		<use href="#tower" x="843" y="998" />
		<use href="#tower" x="847" y="925" />
		<use href="#tower" x="847" y="983" />
		<use href="#tower" x="848" y="911" />
		<use href="#tower" x="848" y="966" />
		<use href="#tower" x="849" y="958" />
		<use href="#tower" x="849" y="1030" />
		<use href="#tower" x="850" y="998" />
		<use href="#tower" x="852" y="918" />
		<use href="#tower" x="853" y="939" />
		<use href="#tower" x="854" y="925" />
		<use href="#tower" x="854" y="945" />
		<use href="#tower" x="854" y="985" />
		<use href="#tower" x="855" y="904" />
		<use href="#tower" x="855" y="954" />
		<use href="#tower" x="855" y="961" />
		<use href="#tower" x="855" y="968" />
		<use href="#tower" x="856" y="950" />
		<use href="#tower" x="856" y="1032" />
		<use href="#tower" x="857" y="1005" />
		<use href="#tower" x="857" y="1012" />
		<use href="#tower" x="859" y="917" />
		<use href="#tower" x="859" y="924" />
		<use href="#tower" x="860" y="901" />
		<use href="#tower" x="861" y="985" />
		<use href="#tower" x="862" y="945" />
		<use href="#tower" x="862" y="952" />
		<use href="#tower" x="862" y="959" />
		<use href="#tower" x="862" y="966" />
		<use href="#tower" x="862" y="998" />
		<use href="#tower" x="863" y="971" />
		<use href="#tower" x="863" y="978" />
		<use href="#tower" x="863" y="1034" />
		<use href="#tower" x="866" y="924" />
		<use href="#tower" x="868" y="991" />
		<use href="#tower" x="869" y="945" />
		<use href="#tower" x="869" y="952" />
		<use href="#tower" x="869" y="959" />
		<use href="#tower" x="869" y="966" />
		<use href="#tower" x="869" y="1027" />
		<use href="#tower" x="871" y="928" />
		<use href="#tower" x="872" y="923" />
		<use href="#tower" x="873" y="927" />
		<use href="#tower" x="874" y="936" />
		<use href="#tower" x="874" y="943" />
		<use href="#tower" x="874" y="1006" />
		<use href="#tower" x="874" y="1013" />
		<use href="#tower" x="875" y="992" />
		<use href="#tower" x="875" y="999" />
		<use href="#tower" x="876" y="950" />
		<use href="#tower" x="876" y="957" />
		<use href="#tower" x="876" y="963" />
		<use href="#tower" x="876" y="1020" />
		<use href="#tower" x="878" y="923" />
		<use href="#tower" x="879" y="930" />
		<use href="#tower" x="880" y="936" />
		<use href="#tower" x="881" y="943" />
		<use href="#tower" x="882" y="923" />
		<use href="#tower" x="882" y="995" />
		<use href="#tower" x="882" y="1038" />
		<use href="#tower" x="883" y="957" />
		<use href="#tower" x="883" y="964" />
		<use href="#tower" x="883" y="1027" />
		<use href="#tower" x="884" y="930" />
		<use href="#tower" x="885" y="916" />
		<use href="#tower" x="887" y="937" />
		<use href="#tower" x="888" y="944" />
		<use href="#tower" x="888" y="964" />
		<use href="#tower" x="888" y="998" />
		<use href="#tower" x="888" y="1034" />
		<use href="#tower" x="889" y="986" />
		<use href="#tower" x="889" y="991" />
		<use href="#tower" x="891" y="957" />
		<use href="#tower" x="892" y="1013" />
		<use href="#tower" x="894" y="936" />
		<use href="#tower" x="896" y="986" />
		<use href="#tower" x="896" y="992" />
		<use href="#tower" x="896" y="998" />
		<use href="#tower" x="899" y="1013" />
		<use href="#tower" x="901" y="936" />
		<use href="#tower" x="903" y="993" />
		<use href="#tower" x="906" y="1000" />
		<use href="#tower" x="906" y="1013" />
		<use href="#tower" x="907" y="934" />
		<use href="#tower" x="913" y="1007" />
		<use href="#tower" x="920" y="1010" />
		<use href="#tower" x="927" y="1004" />
		<use href="#tower" x="933" y="1000" />
		<use href="#tower" x="940" y="997" />
		<use href="#tower" x="944" y="1001" />
		<use href="#tower" x="948" y="1008" />
		<use href="#tower" x="950" y="995" />
		<use href="#tower" x="957" y="988" />
		<use href="#tower" x="964" y="981" />
		<use href="#tower" x="971" y="974" />
		<use href="#tower" x="978" y="975" />

		<!-- alliance buildings -->
		<use href="#hq" x="860" y="931"><title>(viv) Plains Headquarters</title></use>
		<use href="#hq" x="292" y="906"><title>(viv) Wasteland Headquarters</title></use>
		<use href="#trap" x="868" y="946"><title>(viv) Influencer Trap</title></use>
	</g>

	<!-- labs -->
	<g class="labs">
		<use href="#lab1" x="302" y="882"><title>(viv) Resource Production +5%</title></use>
	</g>

	</g>

</g>

<text x="880" y="830">ViV</text>
<text x="900" y="650">viv</text>

</svg>
