<svg id="state-map" version="1.1" viewBox="0 0 2000 2000" xmlns="http://www.w3.org/2000/svg">
<style>
svg { background: #aaa; font: 1em serif; }
.concrete { fill: #777; }
.influence { fill-opacity: 0.1; stroke-width: 0; }

.state .labs { fill: #000; fill-opacity: 0.5; }
.state .forts { fill: #000; }
.state .other { fill: #990; }
/*.state .other { display: none; }*/

.ViV .alliance { fill: #00f; }
.ViV .labs { fill: #00f; }
.viv .alliance { fill: #909; }
.viv .labs { fill: #909; }

.new { fill: #070; }
.old { fill: #900; }

.cap-label { font-size: 0.2em; fill: #fff; }
</style>
<defs>
	<pattern id="capital-grid" width="2%" height="2%">
		<rect x="0" y="0" width="2" height="2" stroke="#000" stroke-width="0.1" class="concrete" />
	</pattern>
	<!-- Level 1 lab - offset from center: 6 -->
	<symbol id="lab1" width="15" height="15">
		<rect x="0" y="0" width="15" height="15" class="concrete" />
		<rect x="6" y="6" width="3" height="3" class="lab" />
	</symbol>
	<!-- Level 2 lab - offset from center: 6 -->
	<symbol id="lab2" width="15" height="15">
		<rect x="0" y="0" width="15" height="15" class="concrete" />
		<rect x="6" y="6" width="3" height="3" class="lab" />
	</symbol>
	<!-- Level 3 lab - offset from center: 6 -->
	<symbol id="lab3" width="16" height="16">
		<rect x="0" y="0" width="16" height="16" class="concrete" />
		<rect x="6" y="6" width="4" height="4" class="lab" />
	</symbol>
	<!-- Level 4 lab - offset from center: 6 -->
	<symbol id="lab4" width="16" height="16">
		<rect x="0" y="0" width="16" height="16" class="concrete" />
		<rect x="6" y="6" width="4" height="4" class="lab" />
	</symbol>

	<!-- Fortified Bunker - offset from center: 18 -->
	<symbol id="bunker" width="40" height="40">
		<rect x="0" y="0" width="40" height="40" class="concrete" />
		<rect x="17" y="17" width="6" height="6" class="fort" />
	</symbol>
	<!-- Fortified Facility - offset from center: 28 -->
	<symbol id="facility" width="60" height="60">
		<rect x="0" y="0" width="60" height="60" class="concrete" />
		<rect x="27" y="27" width="6" height="6" class="fort" />
	</symbol>

	<!-- headquarters - offset from center: 6 -->
	<symbol id="hq" width="14" height="14">
		<rect x="0" y="0" width="14" height="14" class="influence" />
		<rect x="6" y="6" width="2" height="2" />
	</symbol>
	<!-- trap -->
	<symbol id="trap" width="2" height="2">
		<rect x="0" y="0" width="2" height="2" />
	</symbol>
	<!-- colosseum -->
	<symbol id="colosseum" width="2" height="2">
		<rect x="0" y="0" width="2" height="2" />
	</symbol>
	<!-- tower - offset from center: 3 -->
	<symbol id="tower" width="7" height="7">
		<rect x="0" y="0" width="7" height="7" class="influence" />
		<rect x="3" y="3" width="1" height="1" />
	</symbol>
</defs>


<!-- scale to invert x/y, translate to center, rotate -->
<g transform="scale(-1,1) translate(-1650, 350) rotate(-135, 650, 650)">

	<g class="state">
		<!-- background -->
		<rect x="0" y="0" height="1300" width="1300" fill="#cc9"><title>Wasteland</title></rect>
		<rect x="360" y="360" height="580" width="580" fill="#ada"><title>Plains</title></rect>
		<rect x="520" y="520" height="260" width="260" fill="#8c8"><title>Oasis</title></rect>
		<rect x="600" y="600" height="100" width="100" fill="url(#capital-grid)"><title>Old Town</title></rect>
		<rect x="636" y="636" height="28" width="28" fill="#fa0" fill-opacity="0.3"><title>Alert Zone</title></rect>

		<!-- Capital -->
		<g fill="#000">
			<rect x="644" y="644" height="12" width="12" fill-opacity="0.7"><title>Capital</title></rect>
			<rect x="645" y="645" height="1" width="1" />
			<rect x="654" y="645" height="1" width="1" />
			<rect x="645" y="654" height="1" width="1" />
			<rect x="654" y="654" height="1" width="1" />
			<rect x="648" y="648" height="4" width="4" />
		</g>

		<!-- Fortified structures -->
		<g class="forts">
			<use href="#facility" x="460" y="620"><title>Fortified Facility 1</title></use>
			<use href="#facility" x="620" y="460"><title>Fortified Facility 2</title></use>
			<use href="#facility" x="620" y="780"><title>Fortified Facility 4</title></use>
			<use href="#facility" x="780" y="620"><title>Fortified Facility 3</title></use>
			<use href="#bunker" x="240" y="360"><title>Fortified Bunker 3</title></use>
			<use href="#bunker" x="240" y="620"><title>Fortified Bunker 2</title></use>
			<use href="#bunker" x="240" y="880"><title>Fortified Bunker 1</title></use>
			<use href="#bunker" x="380" y="240"><title>Fortified Bunker 4</title></use>
			<use href="#bunker" x="380" y="1020"><title>Fortified Bunker 12</title></use>
			<use href="#bunker" x="640" y="240"><title>Fortified Bunker 5</title></use>
			<use href="#bunker" x="640" y="1020"><title>Fortified Bunker 11</title></use>
			<use href="#bunker" x="900" y="240"><title>Fortified Bunker 6</title></use>
			<use href="#bunker" x="900" y="1020"><title>Fortified Bunker 10</title></use>
			<use href="#bunker" x="1020" y="360"><title>Fortified Bunker 7</title></use>
			<use href="#bunker" x="1020" y="620"><title>Fortified Bunker 8</title></use>
			<use href="#bunker" x="1020" y="880"><title>Fortified Bunker 9</title></use>
		</g>

		<!-- Labs -->
		<g class="labs">
			<use href="#lab1" x="42" y="202"><title>Resource Production +5%</title></use>
			<use href="#lab1" x="42" y="522"><title>Resource Production +5%</title></use>
			<use href="#lab1" x="42" y="802"><title>Resource Production +5%</title></use>
			<use href="#lab1" x="42" y="1082"><title>Resource Gathering Speed +5%</title></use>
			<use href="#lab1" x="62" y="62"><title>Construction Speed +5%</title></use>
			<use href="#lab1" x="122" y="282"><title>Construction Speed +5%</title></use>
			<use href="#lab1" x="122" y="442"><title>Resource Gathering Speed +5%</title></use>
			<use href="#lab1" x="122" y="602"><title>Construction Speed +5%</title></use>
			<use href="#lab1" x="142" y="862"><title>Construction Speed +5%</title></use>
			<use href="#lab1" x="142" y="982"><title>Research Speed +5%</title></use>
			<use href="#lab1" x="162" y="1122"><title>Construction Speed +5%</title></use>
			<use href="#lab1" x="202" y="42"><title>Research Speed +5%</title></use>
			<use href="#lab1" x="202" y="362"><title>Research Speed +5%</title></use>
			<use href="#lab1" x="202" y="642"><title>Research Speed +5%</title></use>
			<use href="#lab1" x="202" y="762"><title>Resource Gathering Speed +5%</title></use>
			<use href="#lab1" x="202" y="1242"><title>Research Speed +5%</title></use>
			<use href="#lab1" x="222" y="222"><title>Resource Gathering Speed +5%</title></use>
			<use href="#lab1" x="282" y="122"><title>Construction Speed +5%</title></use>
			<use href="#lab1" x="302" y="482"><title>Resource Production +5%</title></use>
			<use href="#lab1" x="302" y="882"><title>Resource Production +5%</title></use>
			<use href="#lab1" x="302" y="1142"><title>Resource Production +5%</title></use>
			<use href="#lab1" x="362" y="202"><title>Research Speed +5%</title></use>
			<use href="#lab1" x="402" y="982"><title>Resource Gathering Speed +5%</title></use>
			<use href="#lab1" x="422" y="1142"><title>Construction Speed +5%</title></use>
			<use href="#lab1" x="442" y="122"><title>Resource Gathering Speed +5%</title></use>
			<use href="#lab1" x="482" y="302"><title>Resource Production +5%</title></use>
			<use href="#lab1" x="482" y="1242"><title>Resource Gathering Speed +5%</title></use>
			<use href="#lab1" x="522" y="42"><title>Resource Production +5%</title></use>
			<use href="#lab1" x="522" y="1082"><title>Research Speed +5%</title></use>
			<use href="#lab1" x="602" y="122"><title>Construction Speed +5%</title></use>
			<use href="#lab1" x="642" y="202"><title>Research Speed +5%</title></use>
			<use href="#lab1" x="642" y="1082"><title>Resource Production +5%</title></use>
			<use href="#lab1" x="682" y="1162"><title>Construction Speed +5%</title></use>
			<use href="#lab1" x="762" y="202"><title>Resource Gathering Speed +5%</title></use>
			<use href="#lab1" x="762" y="1242"><title>Research Speed +5%</title></use>
			<use href="#lab1" x="802" y="42"><title>Resource Production +5%</title></use>
			<use href="#lab1" x="802" y="982"><title>Research Speed +5%</title></use>
			<use href="#lab1" x="842" y="1162"><title>Resource Gathering Speed +5%</title></use>
			<use href="#lab1" x="862" y="142"><title>Construction Speed +5%</title></use>
			<use href="#lab1" x="882" y="302"><title>Resource Production +5%</title></use>
			<use href="#lab1" x="922" y="1082"><title>Resource Production +5%</title></use>
			<use href="#lab1" x="982" y="142"><title>Research Speed +5%</title></use>
			<use href="#lab1" x="982" y="402"><title>Resource Gathering Speed +5%</title></use>
			<use href="#lab1" x="982" y="802"><title>Research Speed +5%</title></use>
			<use href="#lab1" x="1002" y="1162"><title>Construction Speed +5%</title></use>
			<use href="#lab1" x="1062" y="1062"><title>Research Speed +5%</title></use>
			<use href="#lab1" x="1082" y="42"><title>Resource Gathering Speed +5%</title></use>
			<use href="#lab1" x="1082" y="522"><title>Research Speed +5%</title></use>
			<use href="#lab1" x="1082" y="642"><title>Resource Production +5%</title></use>
			<use href="#lab1" x="1082" y="922"><title>Resource Production +5%</title></use>
			<use href="#lab1" x="1082" y="1242"><title>Resource Gathering Speed +5%</title></use>
			<use href="#lab1" x="1122" y="162"><title>Construction Speed +5%</title></use>
			<use href="#lab1" x="1142" y="302"><title>Resource Production +5%</title></use>
			<use href="#lab1" x="1142" y="422"><title>Construction Speed +5%</title></use>
			<use href="#lab1" x="1162" y="682"><title>Construction Speed +5%</title></use>
			<use href="#lab1" x="1162" y="842"><title>Resource Gathering Speed +5%</title></use>
			<use href="#lab1" x="1162" y="1002"><title>Construction Speed +5%</title></use>
			<use href="#lab1" x="1222" y="1222"><title>Resource Production +5%</title></use>
			<use href="#lab1" x="1242" y="202"><title>Research Speed +5%</title></use>
			<use href="#lab1" x="1242" y="482"><title>Resource Gathering Speed +5%</title></use>
			<use href="#lab1" x="1242" y="762"><title>Research Speed +5%</title></use>
			<use href="#lab1" x="1242" y="1082"><title>Resource Gathering Speed +5%</title></use>
			<use href="#lab2" x="42" y="362"><title>Training Speed +5%</title></use>
			<use href="#lab2" x="42" y="942"><title>Troop Attack +5%</title></use>
			<use href="#lab2" x="62" y="682"><title>Troop Defense +5%</title></use>
			<use href="#lab2" x="62" y="1222"><title>Training Speed +5%</title></use>
			<use href="#lab2" x="142" y="142"><title>Troop Attack +5%</title></use>
			<use href="#lab2" x="202" y="522"><title>Troop Attack +5%</title></use>
			<use href="#lab2" x="262" y="1022"><title>Troop Defense +5%</title></use>
			<use href="#lab2" x="302" y="302"><title>Troop Defense +5%</title></use>
			<use href="#lab2" x="302" y="682"><title>Training Speed +5%</title></use>
			<use href="#lab2" x="342" y="1242"><title>Troop Attack +5%</title></use>
			<use href="#lab2" x="362" y="42"><title>Training Speed +5%</title></use>
			<use href="#lab2" x="482" y="202"><title>Troop Attack +5%</title></use>
			<use href="#lab2" x="602" y="982"><title>Training Speed +5%</title></use>
			<use href="#lab2" x="602" y="1222"><title>Troop Defense +5%</title></use>
			<use href="#lab2" x="682" y="62"><title>Troop Defense +5%</title></use>
			<use href="#lab2" x="682" y="302"><title>Training Speed +5%</title></use>
			<use href="#lab2" x="762" y="1082"><title>Troop Attack +5%</title></use>
			<use href="#lab2" x="922" y="1242"><title>Training Speed +5%</title></use>
			<use href="#lab2" x="942" y="42"><title>Troop Attack +5%</title></use>
			<use href="#lab2" x="982" y="602"><title>Troop Defense +5%</title></use>
			<use href="#lab2" x="982" y="982"><title>Troop Defense +5%</title></use>
			<use href="#lab2" x="1022" y="262"><title>Training Speed +5%</title></use>
			<use href="#lab2" x="1082" y="762"><title>Troop Attack +5%</title></use>
			<use href="#lab2" x="1142" y="1142"><title>Troop Attack +5%</title></use>
			<use href="#lab2" x="1222" y="62"><title>Troop Defense +5%</title></use>
			<use href="#lab2" x="1222" y="602"><title>Training Speed +5%</title></use>
			<use href="#lab2" x="1242" y="342"><title>Troop Attack +5%</title></use>
			<use href="#lab2" x="1242" y="922"><title>Training Speed +5%</title></use>
			<use href="#lab3" x="402" y="562"><title>March Speed +15%</title></use>
			<use href="#lab3" x="402" y="702"><title>Construction Speed +8%</title></use>
			<use href="#lab3" x="422" y="422"><title>Construction Speed +8%</title></use>
			<use href="#lab3" x="422" y="822"><title>Research Speed +8%</title></use>
			<use href="#lab3" x="482" y="742"><title>Troop Attack +8%</title></use>
			<use href="#lab3" x="502" y="502"><title>Research Speed +8%</title></use>
			<use href="#lab3" x="522" y="862"><title>March Speed +15%</title></use>
			<use href="#lab3" x="562" y="402"><title>March Speed +15%</title></use>
			<use href="#lab3" x="622" y="862"><title>Construction Speed +8%</title></use>
			<use href="#lab3" x="702" y="402"><title>Research Speed +8%</title></use>
			<use href="#lab3" x="742" y="882"><title>Research Speed +8%</title></use>
			<use href="#lab3" x="822" y="422"><title>Construction Speed +8%</title></use>
			<use href="#lab3" x="822" y="822"><title>March Speed +15%</title></use>
			<use href="#lab3" x="862" y="522"><title>March Speed +15%</title></use>
			<use href="#lab3" x="862" y="622"><title>Research Speed +8%</title></use>
			<use href="#lab3" x="882" y="742"><title>Construction Speed +8%</title></use>
			<use href="#lab4" x="462" y="582"><title>Troop Defense +8%</title></use>
			<use href="#lab4" x="582" y="462"><title>Troop Attack +8%</title></use>
			<use href="#lab4" x="702" y="802"><title>Troop Defense +8%</title></use>
			<use href="#lab4" x="742" y="482"><title>Troop Defense +8%</title></use>
			<use href="#lab4" x="802" y="702"><title>Troop Attack +8%</title></use>
		</g>

		<g fill-opacity="0.5">
<path d="M 656 656 v 4 h 2 v 6 h 8 v -10 z" fill="#00f"><title>ViV</title></path>
<path d="M 656 656 v 4 h 2 v 10 h -8 v -14 z" fill="#0f0"><title>TNF</title></path>
<path d="M 644 656 h -2 v 14 h 8 v -14 z" fill="#f60"><title>ReX</title></path>
<path d="M 644 644 h -14 v 12 h 14 z" fill="#66f"><title>WLC &amp; wnb</title></path>
<path d="M 644 644 h -10 v -10 h 10 z" fill="#f66"><title>hes</title></path>
<path d="M 644 644 h 8 v -14 h -8 z" fill="#f00"><title>HES</title></path>
<path d="M 656 644 h 14 v 12 h -14 z" fill="#ff0"><title>UDA &amp; REM</title></path>
</g>


		<!-- Other alliances -->
		<g class="other">
		</g>
	</g>

	<!-- ViV -->
	<g class="ViV">

	<g class="alliance">
		<!-- towers -->
		<use href="#tower" x="809" y="734" />
		<use href="#tower" x="813" y="727" />
		<use href="#tower" x="815" y="716" />
		<use href="#tower" x="820" y="712" />
		<use href="#tower" x="820" y="720" />
		<use href="#tower" x="823" y="726" />
		<use href="#tower" x="825" y="733" />
		<use href="#tower" x="830" y="691" />
		<use href="#tower" x="830" y="726" />
		<use href="#tower" x="832" y="733" />
		<use href="#tower" x="837" y="691" />
		<use href="#tower" x="837" y="726" />
		<use href="#tower" x="839" y="684" />
		<use href="#tower" x="839" y="733" />
		<use href="#tower" x="840" y="698" />
		<use href="#tower" x="840" y="705" />
		<use href="#tower" x="841" y="677" />
		<use href="#tower" x="841" y="716" />
		<use href="#tower" x="841" y="726" />
		<use href="#tower" x="845" y="670" />
		<use href="#tower" x="845" y="684" />
		<use href="#tower" x="846" y="733" />
		<use href="#tower" x="851" y="663" />
		<use href="#tower" x="853" y="734" />
		<use href="#tower" x="858" y="656" />
		<use href="#tower" x="859" y="635" />
		<use href="#tower" x="859" y="642" />
		<use href="#tower" x="860" y="734" />
		<use href="#tower" x="863" y="649" />
		<use href="#tower" x="866" y="729" />
		<use href="#tower" x="873" y="727" />
		<use href="#tower" x="880" y="727" />
		<use href="#tower" x="887" y="727" />
		<use href="#tower" x="894" y="726" />
		<use href="#tower" x="901" y="729" />
		<use href="#tower" x="908" y="729" />
		<use href="#tower" x="915" y="727" />
		<use href="#tower" x="922" y="734" />
		<use href="#tower" x="929" y="735" />
		<use href="#tower" x="936" y="735" />
		<use href="#tower" x="943" y="739" />
		<use href="#tower" x="943" y="746" />
		<use href="#tower" x="947" y="753" />
		<use href="#tower" x="954" y="759" />
		<use href="#tower" x="961" y="766" />
		<use href="#tower" x="968" y="773" />
		<use href="#tower" x="971" y="779" />
		<use href="#tower" x="978" y="786" />
		<use href="#tower" x="985" y="793" />
		<use href="#tower" x="992" y="797" />
		<use href="#tower" x="999" y="791" />
		<use href="#tower" x="1005" y="796" />
		<use href="#tower" x="1012" y="789" />
		<use href="#tower" x="1019" y="786" />
		<use href="#tower" x="1021" y="779" />
		<use href="#tower" x="1024" y="772" />
		<use href="#tower" x="1031" y="765" />
		<use href="#tower" x="1038" y="765" />
		<use href="#tower" x="1045" y="760" />
		<use href="#tower" x="1052" y="753" />
		<use href="#tower" x="1059" y="747" />
		<use href="#tower" x="1066" y="741" />
		<use href="#tower" x="1072" y="747" />
		<use href="#tower" x="1073" y="734" />
		<use href="#tower" x="1079" y="752" />
		<use href="#tower" x="1080" y="727" />
		<use href="#tower" x="1086" y="755" />
		<use href="#tower" x="1087" y="720" />
		<use href="#tower" x="1094" y="713" />
		<use href="#tower" x="1101" y="706" />

		<!-- alliance buildings -->
		<use href="#hq" x="827" y="712"><title>(ViV) Plains Headquarters</title></use>
		<use href="#hq" x="997" y="604"><title>(ViV) Wasteland Headquarters</title></use>
		<use href="#trap" x="825" y="719"><title>(ViV) Influencer Trap</title></use>

		
	</g>

	<!-- labs -->
	<g class="labs">
	</g>

	</g>
	<!-- viv -->
	<g class="viv">

	<g class="alliance">
		<!-- towers -->
		<use href="#tower" x="856" y="785" />
		<use href="#tower" x="856" y="792" />
		<use href="#tower" x="856" y="799" />
		<use href="#tower" x="856" y="805" />
		<use href="#tower" x="856" y="812" />
		<use href="#tower" x="859" y="755" />
		<use href="#tower" x="859" y="757" />
		<use href="#tower" x="859" y="762" />
		<use href="#tower" x="859" y="764" />
		<use href="#tower" x="859" y="778" />
		<use href="#tower" x="860" y="753" />
		<use href="#tower" x="860" y="766" />
		<use href="#tower" x="861" y="754" />
		<use href="#tower" x="861" y="756" />
		<use href="#tower" x="861" y="763" />
		<use href="#tower" x="862" y="753" />
		<use href="#tower" x="862" y="766" />
		<use href="#tower" x="864" y="766" />
		<use href="#tower" x="866" y="753" />
		<use href="#tower" x="866" y="766" />
		<use href="#tower" x="866" y="770" />
		<use href="#tower" x="866" y="775" />
		<use href="#tower" x="866" y="782" />
		<use href="#tower" x="868" y="753" />
		<use href="#tower" x="868" y="766" />
		<use href="#tower" x="870" y="753" />
		<use href="#tower" x="870" y="766" />
		<use href="#tower" x="872" y="753" />
		<use href="#tower" x="872" y="766" />
		<use href="#tower" x="873" y="782" />
		<use href="#tower" x="874" y="753" />
		<use href="#tower" x="874" y="757" />
		<use href="#tower" x="874" y="759" />
		<use href="#tower" x="874" y="760" />
		<use href="#tower" x="874" y="762" />
		<use href="#tower" x="874" y="764" />
		<use href="#tower" x="874" y="766" />
		<use href="#tower" x="877" y="786" />
		<use href="#tower" x="1235" y="915" />
		<use href="#tower" x="1235" y="922" />
		<use href="#tower" x="1235" y="928" />
		<use href="#tower" x="1242" y="915" />
		<use href="#tower" x="1244" y="796" />
		<use href="#tower" x="1244" y="937" />
		<use href="#tower" x="1245" y="789" />
		<use href="#tower" x="1245" y="803" />
		<use href="#tower" x="1245" y="810" />
		<use href="#tower" x="1245" y="817" />
		<use href="#tower" x="1245" y="824" />
		<use href="#tower" x="1245" y="831" />
		<use href="#tower" x="1245" y="838" />
		<use href="#tower" x="1245" y="845" />
		<use href="#tower" x="1245" y="852" />
		<use href="#tower" x="1245" y="859" />
		<use href="#tower" x="1246" y="776" />
		<use href="#tower" x="1246" y="782" />
		<use href="#tower" x="1246" y="866" />
		<use href="#tower" x="1246" y="873" />
		<use href="#tower" x="1247" y="908" />
		<use href="#tower" x="1249" y="901" />
		<use href="#tower" x="1249" y="915" />
		<use href="#tower" x="1250" y="880" />
		<use href="#tower" x="1250" y="937" />
		<use href="#tower" x="1251" y="887" />
		<use href="#tower" x="1251" y="894" />
		<use href="#tower" x="1256" y="916" />
		<use href="#tower" x="1257" y="923" />
		<use href="#tower" x="1257" y="930" />
		<use href="#tower" x="1257" y="937" />

		<!-- alliance buildings -->
		<use href="#hq" x="868" y="756"><title>(viv) Plains Headquarters</title></use>
		<use href="#hq" x="1230" y="935"><title>(viv) Wasteland Headquarters</title></use>
		<use href="#trap" x="868" y="762"><title>(viv) Influencer Trap</title></use>
		<use href="#colosseum" x="862" y="762"><title>(viv) Colosseum</title></use>

		
	</g>

	<!-- labs -->
	<g class="labs">
	</g>

	</g>

</g>

<!--
<text x="880" y="830">ViV</text>
<text x="900" y="650">viv</text>
-->

</svg>
