<svg id="state-map" version="1.1" viewBox="0 0 2000 2000" xmlns="http://www.w3.org/2000/svg">
<style>
svg { background: #aaa; font: 1em serif; }
.concrete { fill: #777; }
.influence { fill-opacity: 0.1; stroke-width: 0; }

.state .labs { fill: #000; fill-opacity: 0.5; }
.state .forts { fill: #000; }
.state .other { fill: #990; }
/*.state .other { display: none; }*/

.viv-1 .alliance { fill: #00f; }
.viv-1 .labs { fill: #00f; }

.viv-2 .alliance { fill: #909; }
.viv-2 .labs { fill: #909; }

.new { fill: #070; }
.old { fill: #900; }

.cap-label { font-size: 0.2em; fill: #fff; }
</style>
<defs>
	<pattern id="capital-grid" width="2%" height="2%">
		<rect x="0" y="0" width="2" height="2" stroke="#000" stroke-width="0.1" class="concrete" />
	</pattern>
	<!-- Level 1 lab - offset from center: 6 -->
	<symbol id="lab1" width="15" height="15">
		<rect x="0" y="0" width="15" height="15" class="concrete" />
		<rect x="6" y="6" width="3" height="3" class="lab" />
	</symbol>
	<!-- Level 2 lab - offset from center: 6 -->
	<symbol id="lab2" width="15" height="15">
		<rect x="0" y="0" width="15" height="15" class="concrete" />
		<rect x="6" y="6" width="3" height="3" class="lab" />
	</symbol>
	<!-- Level 3 lab - offset from center: 6 -->
	<symbol id="lab3" width="16" height="16">
		<rect x="0" y="0" width="16" height="16" class="concrete" />
		<rect x="6" y="6" width="4" height="4" class="lab" />
	</symbol>
	<!-- Level 4 lab - offset from center: 6 -->
	<symbol id="lab4" width="16" height="16">
		<rect x="0" y="0" width="16" height="16" class="concrete" />
		<rect x="6" y="6" width="4" height="4" class="lab" />
	</symbol>

	<!-- Fortified Bunker - offset from center: 18 -->
	<symbol id="bunker" width="40" height="40">
		<rect x="0" y="0" width="40" height="40" class="concrete" />
		<rect x="17" y="17" width="6" height="6" class="fort" />
	</symbol>
	<!-- Fortified Facility - offset from center: 28 -->
	<symbol id="facility" width="60" height="60">
		<rect x="0" y="0" width="60" height="60" class="concrete" />
		<rect x="27" y="27" width="6" height="6" class="fort" />
	</symbol>

	<!-- headquarters - offset from center: 6 -->
	<symbol id="hq" width="14" height="14">
		<rect x="0" y="0" width="14" height="14" class="influence" />
		<rect x="6" y="6" width="2" height="2" />
	</symbol>
	<!-- trap -->
	<symbol id="trap" width="2" height="2">
		<rect x="0" y="0" width="2" height="2" />
	</symbol>
	<!-- tower - offset from center: 3 -->
	<symbol id="tower" width="7" height="7">
		<rect x="0" y="0" width="7" height="7" class="influence" />
		<rect x="3" y="3" width="1" height="1" />
	</symbol>
</defs>


<!-- scale to invert x/y, translate to center, rotate -->
<g transform="scale(-1,1) translate(-1650, 350) rotate(-135, 650, 650)">

	<g class="state">
		<!-- background -->
		<rect x="0" y="0" height="1300" width="1300" fill="#cc9"><title>Wasteland</title></rect>
		<rect x="360" y="360" height="580" width="580" fill="#ada"><title>Plains</title></rect>
		<rect x="520" y="520" height="260" width="260" fill="#8c8"><title>Oasis</title></rect>
		<rect x="600" y="600" height="100" width="100" fill="url(#capital-grid)"><title>Old Town</title></rect>
		<rect x="636" y="636" height="28" width="28" fill="#fa0" fill-opacity="0.3"><title>Alert Zone</title></rect>

		<!-- Capital -->
		<g fill="#000">
			<rect x="644" y="644" height="12" width="12" fill-opacity="0.7"><title>Capital</title></rect>
			<rect x="645" y="645" height="1" width="1" />
			<rect x="654" y="645" height="1" width="1" />
			<rect x="645" y="654" height="1" width="1" />
			<rect x="654" y="654" height="1" width="1" />
			<rect x="648" y="648" height="4" width="4" />
		</g>
		<!--
		<g fill-opacity="0.7">
			<path d="M 644 646 h -6 v -2 h -14 v 14 h 18 v -2 h 2 z" fill="#00f"><title>WLC</title></path><text x="0" y="0" class="cap-label" transform="scale(1,-1) translate(630,-652) rotate(45,0,0)">WLC</text>
			<path d="M 644 656 v 2 h -2 v 24 h 8 v -26 z" fill="#660"><title>EnK</title></path><text x="0" y="0" class="cap-label" transform="scale(1,-1) translate(642,-670) rotate(45,0,0)">EnK</text>
			<path d="M 656 656 v 2 h 2 v 2 h 2 v 22 h -10 v -26 z" fill="#060"><title>EAS</title></path><text x="0" y="0" class="cap-label" transform="scale(1,-1) translate(652,-670) rotate(45,0,0)">EAS</text>
			<path d="M 656 656 v 2 h 2 v 2 h 2 v 2 h 22 v -10 h -26 z" fill="#900"><title>cap</title></path><text x="0" y="0" class="cap-label" transform="scale(1,-1) translate(664,-658) rotate(45,0,0)">cap</text>
			<path d="M 656 646 h 2 v -2 h 2 v -2 h 22 v 10 h -26 z" fill="#f66"><title>666</title></path><text x="0" y="0" class="cap-label" transform="scale(1,-1) translate(664,-648) rotate(45,0,0)">666</text>
			<path d="M 656 646 h 2 v -2 h 2 v -2 h 12 v -16 h -14 v 12 h -2 z" fill="#060"><title>Tca</title></path><text x="0" y="0" class="cap-label" transform="scale(1,-1) translate(664,-636) rotate(45,0,0)">Tca</text>
			<path d="M 656 644 v -6 h 2 v -20 h -8 v 26 z" fill="#099"><title>TW1</title></path><text x="0" y="0" class="cap-label" transform="scale(1,-1) translate(650,-636) rotate(45,0,0)">TW1</text>
			<path d="M 644 644 v -2 h -2 v -2 h -2 v -2 h -2 v -20 h 12 v 26 z" fill="#ff6"><title>UDA</title></path><text x="0" y="0" class="cap-label" transform="scale(1,-1) translate(642,-636) rotate(45,0,0)" style="fill:#000">UDA</text>
		</g>
		-->

		<!-- Fortified structures -->
		<g class="forts">
			<use href="#facility" x="460" y="620"><title>Fortified Facility 1</title></use>
			<use href="#facility" x="620" y="460"><title>Fortified Facility 2</title></use>
			<use href="#facility" x="620" y="780"><title>Fortified Facility 4</title></use>
			<use href="#facility" x="780" y="620"><title>Fortified Facility 3</title></use>
			<use href="#bunker" x="240" y="620"><title>Fortified Bunker 2 (ViV)</title></use>
			<use href="#bunker" x="240" y="360"><title>Fortified Bunker 3</title></use>
			<use href="#bunker" x="240" y="880"><title>Fortified Bunker 1</title></use>
			<use href="#bunker" x="380" y="240"><title>Fortified Bunker 4</title></use>
			<use href="#bunker" x="380" y="1020"><title>Fortified Bunker 12</title></use>
			<use href="#bunker" x="640" y="240"><title>Fortified Bunker 5</title></use>
			<use href="#bunker" x="640" y="1020"><title>Fortified Bunker 11</title></use>
			<use href="#bunker" x="900" y="240"><title>Fortified Bunker 6</title></use>
			<use href="#bunker" x="900" y="1020"><title>Fortified Bunker 10</title></use>
			<use href="#bunker" x="1020" y="360"><title>Fortified Bunker 7</title></use>
			<use href="#bunker" x="1020" y="620"><title>Fortified Bunker 8</title></use>
			<use href="#bunker" x="1020" y="880"><title>Fortified Bunker 9</title></use>
		</g>

		<!-- Labs -->
		<g class="labs">
			<use href="#lab1" x="42" y="202"><title>Resource Production +5%</title></use>
			<use href="#lab1" x="42" y="522"><title>Resource Production +5%</title></use>
			<use href="#lab1" x="42" y="802"><title>Resource Production +5%</title></use>
			<use href="#lab1" x="42" y="1082"><title>Resource Gathering Speed +5%</title></use>
			<use href="#lab1" x="62" y="62"><title>Construction Speed +5%</title></use>
			<use href="#lab1" x="122" y="282"><title>Construction Speed +5%</title></use>
			<use href="#lab1" x="122" y="442"><title>Resource Gathering Speed +5%</title></use>
			<use href="#lab1" x="122" y="602"><title>Construction Speed +5%</title></use>
			<use href="#lab1" x="142" y="982"><title>Research Speed +5%</title></use>
			<use href="#lab1" x="162" y="1122"><title>Construction Speed +5%</title></use>
			<use href="#lab1" x="202" y="42"><title>Research Speed +5%</title></use>
			<use href="#lab1" x="202" y="362"><title>Research Speed +5%</title></use>
			<use href="#lab1" x="202" y="642"><title>Research Speed +5%</title></use>
			<use href="#lab1" x="202" y="1242"><title>Research Speed +5%</title></use>
			<use href="#lab1" x="222" y="222"><title>Resource Gathering Speed +5%</title></use>
			<use href="#lab1" x="282" y="122"><title>Construction Speed +5%</title></use>
			<use href="#lab1" x="302" y="482"><title>Resource Production +5%</title></use>
			<use href="#lab1" x="302" y="1142"><title>Resource Production +5%</title></use>
			<use href="#lab1" x="362" y="202"><title>Research Speed +5%</title></use>
			<use href="#lab1" x="402" y="982"><title>Resource Gathering Speed +5%</title></use>
			<use href="#lab1" x="422" y="1142"><title>Construction Speed +5%</title></use>
			<use href="#lab1" x="442" y="122"><title>Resource Gathering Speed +5%</title></use>
			<use href="#lab1" x="482" y="302"><title>Resource Production +5%</title></use>
			<use href="#lab1" x="482" y="1242"><title>Resource Gathering Speed +5%</title></use>
			<use href="#lab1" x="522" y="42"><title>Resource Production +5%</title></use>
			<use href="#lab1" x="522" y="1082"><title>Research Speed +5%</title></use>
			<use href="#lab1" x="602" y="122"><title>Construction Speed +5%</title></use>
			<use href="#lab1" x="642" y="202"><title>Research Speed +5%</title></use>
			<use href="#lab1" x="642" y="1082"><title>Resource Production +5%</title></use>
			<use href="#lab1" x="682" y="1162"><title>Construction Speed +5%</title></use>
			<use href="#lab1" x="762" y="202"><title>Resource Gathering Speed +5%</title></use>
			<use href="#lab1" x="762" y="1242"><title>Research Speed +5%</title></use>
			<use href="#lab1" x="802" y="42"><title>Resource Production +5%</title></use>
			<use href="#lab1" x="802" y="982"><title>Research Speed +5%</title></use>
			<use href="#lab1" x="842" y="1162"><title>Resource Gathering Speed +5%</title></use>
			<use href="#lab1" x="862" y="142"><title>Construction Speed +5%</title></use>
			<use href="#lab1" x="882" y="302"><title>Resource Production +5%</title></use>
			<use href="#lab1" x="922" y="1082"><title>Resource Production +5%</title></use>
			<use href="#lab1" x="982" y="142"><title>Research Speed +5%</title></use>
			<use href="#lab1" x="982" y="402"><title>Resource Gathering Speed +5%</title></use>
			<use href="#lab1" x="982" y="802"><title>Research Speed +5%</title></use>
			<use href="#lab1" x="1002" y="1162"><title>Construction Speed +5%</title></use>
			<use href="#lab1" x="1062" y="1062"><title>Research Speed +5%</title></use>
			<use href="#lab1" x="1082" y="42"><title>Resource Gathering Speed +5%</title></use>
			<use href="#lab1" x="1082" y="522"><title>Research Speed +5%</title></use>
			<use href="#lab1" x="1082" y="642"><title>Resource Production +5%</title></use>
			<use href="#lab1" x="1082" y="922"><title>Resource Production +5%</title></use>
			<use href="#lab1" x="1082" y="1242"><title>Resource Gathering Speed +5%</title></use>
			<use href="#lab1" x="1122" y="162"><title>Construction Speed +5%</title></use>
			<use href="#lab1" x="1142" y="302"><title>Resource Production +5%</title></use>
			<use href="#lab1" x="1142" y="422"><title>Construction Speed +5%</title></use>
			<use href="#lab1" x="1162" y="682"><title>Construction Speed +5%</title></use>
			<use href="#lab1" x="1162" y="842"><title>Resource Gathering Speed +5%</title></use>
			<use href="#lab1" x="1162" y="1002"><title>Construction Speed +5%</title></use>
			<use href="#lab1" x="1222" y="1222"><title>Resource Production +5%</title></use>
			<use href="#lab1" x="1242" y="202"><title>Research Speed +5%</title></use>
			<use href="#lab1" x="1242" y="482"><title>Resource Gathering Speed +5%</title></use>
			<use href="#lab1" x="1242" y="762"><title>Research Speed +5%</title></use>
			<use href="#lab1" x="1242" y="1082"><title>Resource Gathering Speed +5%</title></use>
			<use href="#lab2" x="42" y="362"><title>Training Speed +5%</title></use>
			<use href="#lab2" x="42" y="942"><title>Troop Attack +5%</title></use>
			<use href="#lab2" x="62" y="682"><title>Troop Defense +5%</title></use>
			<use href="#lab2" x="62" y="1222"><title>Training Speed +5%</title></use>
			<use href="#lab2" x="142" y="142"><title>Troop Attack +5%</title></use>
			<use href="#lab2" x="202" y="522"><title>Troop Attack +5%</title></use>
			<use href="#lab2" x="262" y="1022"><title>Troop Defense +5%</title></use>
			<use href="#lab2" x="302" y="302"><title>Troop Defense +5%</title></use>
			<use href="#lab2" x="302" y="682"><title>Training Speed +5%</title></use>
			<use href="#lab2" x="342" y="1242"><title>Troop Attack +5%</title></use>
			<use href="#lab2" x="362" y="42"><title>Training Speed +5%</title></use>
			<use href="#lab2" x="482" y="202"><title>Troop Attack +5%</title></use>
			<use href="#lab2" x="602" y="982"><title>Training Speed +5%</title></use>
			<use href="#lab2" x="602" y="1222"><title>Troop Defense +5%</title></use>
			<use href="#lab2" x="682" y="62"><title>Troop Defense +5%</title></use>
			<use href="#lab2" x="682" y="302"><title>Training Speed +5%</title></use>
			<use href="#lab2" x="762" y="1082"><title>Troop Attack +5%</title></use>
			<use href="#lab2" x="922" y="1242"><title>Training Speed +5%</title></use>
			<use href="#lab2" x="942" y="42"><title>Troop Attack +5%</title></use>
			<use href="#lab2" x="982" y="602"><title>Troop Defense +5%</title></use>
			<use href="#lab2" x="982" y="982"><title>Troop Defense +5%</title></use>
			<use href="#lab2" x="1022" y="262"><title>Training Speed +5%</title></use>
			<use href="#lab2" x="1082" y="762"><title>Troop Attack +5%</title></use>
			<use href="#lab2" x="1142" y="1142"><title>Troop Attack +5%</title></use>
			<use href="#lab2" x="1222" y="62"><title>Troop Defense +5%</title></use>
			<use href="#lab2" x="1222" y="602"><title>Training Speed +5%</title></use>
			<use href="#lab2" x="1242" y="342"><title>Troop Attack +5%</title></use>
			<use href="#lab2" x="1242" y="922"><title>Training Speed +5%</title></use>
			<use href="#lab3" x="402" y="562"><title>March Speed +15%</title></use>
			<use href="#lab3" x="402" y="702"><title>Construction Speed +8%</title></use>
			<use href="#lab3" x="422" y="422"><title>Construction Speed +8%</title></use>
			<use href="#lab3" x="422" y="822"><title>Research Speed +8%</title></use>
			<use href="#lab3" x="482" y="742"><title>Troop Attack +8%</title></use>
			<use href="#lab3" x="502" y="502"><title>Research Speed +8%</title></use>
			<use href="#lab3" x="522" y="862"><title>March Speed +15%</title></use>
			<use href="#lab3" x="562" y="402"><title>March Speed +15%</title></use>
			<use href="#lab3" x="622" y="862"><title>Construction Speed +8%</title></use>
			<use href="#lab3" x="702" y="402"><title>Research Speed +8%</title></use>
			<use href="#lab3" x="742" y="882"><title>Research Speed +8%</title></use>
			<use href="#lab3" x="822" y="422"><title>Construction Speed +8%</title></use>
			<use href="#lab3" x="822" y="822"><title>March Speed +15%</title></use>
			<use href="#lab3" x="862" y="522"><title>March Speed +15%</title></use>
			<use href="#lab3" x="862" y="622"><title>Research Speed +8%</title></use>
			<use href="#lab3" x="882" y="742"><title>Construction Speed +8%</title></use>
			<use href="#lab4" x="462" y="582"><title>Troop Defense +8%</title></use>
			<use href="#lab4" x="582" y="462"><title>Troop Attack +8%</title></use>
			<use href="#lab4" x="702" y="802"><title>Troop Defense +8%</title></use>
			<use href="#lab4" x="742" y="482"><title>Troop Defense +8%</title></use>
			<use href="#lab4" x="802" y="702"><title>Troop Attack +8%</title></use>
		</g>

		<!-- Other alliances -->
		<g class="other">
			<use href="#hq" x="346" y="915"><title>(AoD) Wasteland Headquarters</title></use>
			<use href="#hq" x="392" y="964"><title>(EVO) Wasteland Headquarters</title></use>
			<use href="#hq" x="1062" y="1082"><title>(FRE) Wasteland Headquarters</title></use>
			<use href="#hq" x="357" y="971"><title>(INS) Wasteland Headquarters</title></use>
			<use href="#hq" x="147" y="877"><title>(KOP) Wasteland Headquarters</title></use>
			<use href="#hq" x="405" y="945"><title>(SIP) Wasteland Headquarters</title></use>
			<use href="#hq" x="742" y="934"><title>(SOA) Wasteland Headquarters</title></use>
			<use href="#hq" x="352" y="785"><title>(SUP) Wasteland Headquarters</title></use>
			<use href="#hq" x="272" y="660"><title>(VNF) Wasteland Headquarters</title></use>
			<use href="#hq" x="502" y="735"><title>(VNF) Plains Headquarters</title></use>
			<use href="#hq" x="947" y="593"><title>(WIN) Wasteland Headquarters</title></use>
			<use href="#trap" x="756" y="943"><title>(SOA) Influencer Trap</title></use>
			<use href="#trap" x="959" y="613"><title>(WIN) Influencer Trap</title></use>
		</g>
	</g>

	<!-- ViV -->
	<g class="viv-1">

	<g class="alliance">
		<!-- towers -->
		<use href="#tower" x="151" y="856" />
		<use href="#tower" x="153" y="849" />
		<use href="#tower" x="160" y="843" />
		<use href="#tower" x="167" y="844" />
		<use href="#tower" x="174" y="847" />
		<use href="#tower" x="181" y="852" />
		<use href="#tower" x="188" y="852" />
		<use href="#tower" x="195" y="847" />
		<use href="#tower" x="202" y="841" />
		<use href="#tower" x="209" y="835" />
		<use href="#tower" x="216" y="776" />
		<use href="#tower" x="216" y="830" />
		<use href="#tower" x="223" y="781" />
		<use href="#tower" x="223" y="830" />
		<use href="#tower" x="230" y="776" />
		<use href="#tower" x="230" y="786" />
		<use href="#tower" x="230" y="827" />
		<use href="#tower" x="231" y="807" />
		<use href="#tower" x="232" y="793" />
		<use href="#tower" x="232" y="800" />
		<use href="#tower" x="232" y="814" />
		<use href="#tower" x="235" y="763" />
		<use href="#tower" x="235" y="769" />
		<use href="#tower" x="237" y="821" />
		<use href="#tower" x="242" y="756" />
		<use href="#tower" x="244" y="821" />
		<use href="#tower" x="247" y="828" />
		<use href="#tower" x="249" y="749" />
		<use href="#tower" x="254" y="833" />
		<use href="#tower" x="255" y="742" />
		<use href="#tower" x="261" y="837" />
		<use href="#tower" x="262" y="735" />
		<use href="#tower" x="264" y="979" />
		<use href="#tower" x="265" y="972" />
		<use href="#tower" x="265" y="986" />
		<use href="#tower" x="266" y="1018" />
		<use href="#tower" x="268" y="842" />
		<use href="#tower" x="268" y="1000" />
		<use href="#tower" x="268" y="1014" />
		<use href="#tower" x="269" y="732" />
		<use href="#tower" x="271" y="993" />
		<use href="#tower" x="271" y="1007" />
		<use href="#tower" x="272" y="967" />
		<use href="#tower" x="274" y="725" />
		<use href="#tower" x="275" y="844" />
		<use href="#tower" x="276" y="711" />
		<use href="#tower" x="276" y="718" />
		<use href="#tower" x="277" y="700" />
		<use href="#tower" x="279" y="953" />
		<use href="#tower" x="279" y="960" />
		<use href="#tower" x="281" y="946" />
		<use href="#tower" x="282" y="707" />
		<use href="#tower" x="282" y="847" />
		<use href="#tower" x="284" y="693" />
		<use href="#tower" x="288" y="939" />
		<use href="#tower" x="289" y="850" />
		<use href="#tower" x="290" y="689" />
		<use href="#tower" x="295" y="932" />
		<use href="#tower" x="296" y="856" />
		<use href="#tower" x="297" y="693" />
		<use href="#tower" x="302" y="925" />
		<use href="#tower" x="303" y="857" />
		<use href="#tower" x="309" y="921" />
		<use href="#tower" x="310" y="857" />
		<use href="#tower" x="312" y="876" />
		<use href="#tower" x="315" y="870" />
		<use href="#tower" x="316" y="921" />
		<use href="#tower" x="317" y="854" />
		<use href="#tower" x="317" y="863" />
		<use href="#tower" x="318" y="847" />
		<use href="#tower" x="322" y="840" />
		<use href="#tower" x="323" y="896" />
		<use href="#tower" x="323" y="914" />
		<use href="#tower" x="324" y="857" />
		<use href="#tower" x="325" y="833" />
		<use href="#tower" x="330" y="861" />
		<use href="#tower" x="330" y="900" />
		<use href="#tower" x="330" y="907" />
		<use href="#tower" x="331" y="854" />
		<use href="#tower" x="337" y="861" />
		<use href="#tower" x="337" y="868" />
		<use href="#tower" x="337" y="875" />
		<use href="#tower" x="337" y="882" />
		<use href="#tower" x="337" y="889" />
		<use href="#tower" x="337" y="896" />
		<use href="#tower" x="338" y="854" />
		<use href="#tower" x="344" y="896" />
		<use href="#tower" x="345" y="833" />
		<use href="#tower" x="345" y="840" />
		<use href="#tower" x="351" y="861" />
		<use href="#tower" x="351" y="896" />
		<use href="#tower" x="352" y="814" />
		<use href="#tower" x="352" y="821" />
		<use href="#tower" x="352" y="828" />
		<use href="#tower" x="355" y="889" />
		<use href="#tower" x="359" y="831" />
		<use href="#tower" x="362" y="892" />
		<use href="#tower" x="365" y="831" />
		<use href="#tower" x="369" y="891" />
		<use href="#tower" x="372" y="824" />
		<use href="#tower" x="372" y="831" />
		<use href="#tower" x="376" y="886" />
		<use href="#tower" x="414" y="556" />
		<use href="#tower" x="420" y="563" />
		<use href="#tower" x="427" y="563" />
		<use href="#tower" x="434" y="563" />
		<use href="#tower" x="440" y="570" />
		<use href="#tower" x="452" y="530" />
		<use href="#tower" x="454" y="544" />
		<use href="#tower" x="457" y="523" />
		<use href="#tower" x="457" y="551" />
		<use href="#tower" x="457" y="558" />
		<use href="#tower" x="457" y="565" />
		<use href="#tower" x="458" y="537" />
		<use href="#tower" x="458" y="578" />
		<use href="#tower" x="459" y="572" />
		<use href="#tower" x="464" y="516" />
		<use href="#tower" x="464" y="565" />
		<use href="#tower" x="466" y="572" />
		<use href="#tower" x="471" y="516" />
		<use href="#tower" x="478" y="517" />
		<use href="#tower" x="485" y="516" />
		<use href="#tower" x="492" y="515" />
		<use href="#tower" x="499" y="515" />
		<use href="#tower" x="506" y="518" />
		<use href="#tower" x="513" y="519" />
		<use href="#tower" x="513" y="526" />
		<use href="#tower" x="513" y="533" />
		<use href="#tower" x="516" y="540" />
		<use href="#tower" x="516" y="547" />
		<use href="#tower" x="518" y="512" />
		<use href="#tower" x="523" y="505" />
		<use href="#tower" x="530" y="498" />
		<use href="#tower" x="537" y="492" />
		<use href="#tower" x="544" y="486" />
		<use href="#tower" x="555" y="477" />
		<use href="#tower" x="562" y="477" />
		<use href="#tower" x="548" y="479" />
		<use href="#tower" x="569" y="474" />
		<use href="#tower" x="576" y="473" />

		<!-- alliance buildings -->
		<use href="#hq" x="345" y="847"><title>(ViV) Wasteland Headquarters</title></use>
		<use href="#hq" x="445" y="577"><title>(ViV) Plains Headquarters</title></use>
		<use href="#trap" x="465" y="571"><title>(ViV) Influencer Trap</title></use>
	</g>

	<!-- labs -->
	<g class="labs">
		<use href="#lab1" x="142" y="862"><title>(ViV) Construction Speed +5%</title></use>
		<use href="#lab1" x="202" y="762"><title>(ViV) Resource Gathering Speed +5%</title></use>
		<use href="#lab1" x="302" y="882"><title>(ViV) Resource Production +5%</title></use>
	</g>

	</g>


	<!-- viv -->
	<g class="viv-2">

	<g class="alliance">
		<!-- towers -->

		<!-- alliance buildings -->
	</g>

	<!-- labs -->
	<g class="labs">
	</g>

	</g>

</g>

<text x="880" y="830">ViV</text>
<text x="900" y="650">viv</text>

</svg>
